<svg width="20" height="20" viewBox="0 0 20 20" fill="none" xmlns="http://www.w3.org/2000/svg">
<circle cx="10" cy="10" r="10" fill="url(#paint0_linear)"/>
<path d="M11.7536 4.32814L11.7861 4.35536C11.8582 4.41891 12.0277 4.5873 12.0622 4.79179C12.0889 4.96178 12.0889 5.13485 12.0622 5.30483C12.1255 5.24997 12.1796 5.18543 12.2225 5.11364C12.2564 5.02171 12.2814 4.92673 12.297 4.83003C12.4104 4.97644 12.4843 5.14918 12.5118 5.33192C12.5242 5.5242 12.5077 5.71724 12.4629 5.90471C12.5368 5.82691 12.6031 5.74235 12.6609 5.65217C12.7186 5.52855 12.7697 5.40197 12.814 5.27297C12.9212 5.46194 12.9939 5.66826 13.0288 5.8824C13.0414 6.08413 13.0318 6.28663 12.9999 6.48626L13.1514 6.33211C13.1896 6.29241 13.2243 6.25528 13.2404 6.23532C13.3086 6.12103 13.3702 6.00293 13.4247 5.88161C13.5178 6.10544 13.5788 6.34116 13.6059 6.58186C13.6127 6.81062 13.5765 7.03864 13.4993 7.25423C13.632 7.18904 13.7595 7.11394 13.8808 7.02958C13.9947 6.9165 14.1018 6.7968 14.2014 6.67109C14.2319 6.89384 14.2424 7.11885 14.2327 7.34346C14.2013 7.57105 14.1285 7.79106 14.0179 7.99272C14.1471 7.95942 14.274 7.91791 14.3978 7.86845C14.5244 7.81348 14.7985 7.65415 14.7985 7.65415L14.7987 7.71093C14.7971 7.83516 14.782 8.13347 14.6791 8.30262C14.592 8.44408 14.4923 8.5774 14.381 8.70094C14.4794 8.69674 14.5774 8.68583 14.6743 8.66828C14.8009 8.62753 14.9208 8.56847 15.0302 8.49302C15.0045 8.69848 14.9483 8.89902 14.8635 9.08812C14.7547 9.26844 14.6282 9.43762 14.486 9.59319C14.5822 9.61268 14.6803 9.62203 14.7785 9.62107C14.8964 9.60832 15.0124 9.58157 15.124 9.54141C15.0873 9.70324 15.0193 9.8564 14.9236 9.99231C14.8166 10.1017 14.6949 10.1956 14.562 10.2716L14.5044 10.303L14.8114 10.3269C14.9163 10.3271 15.0211 10.3191 15.1248 10.303C15.0862 10.5157 14.978 10.7098 14.817 10.8551C14.651 10.9895 14.4605 11.0909 14.2559 11.1538C14.3532 11.1989 14.4554 11.2329 14.5605 11.255C14.6562 11.2704 14.7529 11.2781 14.8498 11.2781C14.7991 11.4304 14.6969 11.5604 14.5605 11.6462C14.4497 11.7225 14.3217 11.7704 14.1878 11.7856C14.2497 11.8139 14.3152 11.8338 14.3826 11.8445L14.4226 11.8468C14.5088 11.8498 14.623 11.8445 14.623 11.8445L14.563 11.9134C14.4417 12.0467 14.1485 12.341 13.7926 12.501C13.4279 12.6649 13.0037 12.6703 12.8323 12.6645C12.859 12.7079 12.8837 12.7522 12.907 12.7973C12.964 12.9523 13.0028 13.1132 13.0228 13.2769L13.0312 13.3589V14.9881C12.9934 15.0998 12.9221 15.1974 12.8268 15.2677C12.7449 15.3145 12.6507 15.3348 12.5572 15.3264L12.5222 15.3219C12.4296 15.3181 12.3402 15.2873 12.265 15.2335C12.198 15.1655 12.15 15.0816 12.1255 14.9897V13.6967C12.1283 13.5477 12.1059 13.3993 12.059 13.2578C11.9949 13.1344 11.917 13.0186 11.8265 12.9128L9.72656 10.2042V10.2002V10.1986L7.6266 12.9112C7.53609 13.0172 7.45785 13.1329 7.39336 13.2562C7.35321 13.3775 7.33095 13.5039 7.32717 13.6313L7.32683 13.6951V14.9897C7.30212 15.0817 7.25411 15.1659 7.18737 15.2343C7.12298 15.28 7.0483 15.3089 6.97019 15.3186L6.93088 15.3219C6.82585 15.3394 6.71794 15.3203 6.62551 15.2677C6.52996 15.1975 6.45835 15.0999 6.42032 14.9881V13.3581C6.43667 13.1661 6.47844 12.9769 6.54455 12.7957C6.56791 12.7503 6.59283 12.7058 6.61924 12.6621L6.56897 12.6633C6.3745 12.6657 5.99324 12.6479 5.66048 12.4986C5.18999 12.2874 4.83012 11.8421 4.83012 11.8421L4.91848 11.8448C4.96798 11.8457 5.02809 11.8457 5.07057 11.8421C5.13789 11.8314 5.20342 11.8115 5.26534 11.7832C5.14828 11.7703 5.03573 11.732 4.93557 11.6712L4.89343 11.6438C4.75685 11.5584 4.65429 11.4286 4.60329 11.2765C4.70021 11.276 4.79695 11.268 4.89263 11.2526C4.99786 11.2305 5.10028 11.1968 5.19801 11.1522C4.9934 11.089 4.80292 10.9874 4.63695 10.8527C4.47573 10.7084 4.36721 10.5151 4.32837 10.303C4.43178 10.319 4.53629 10.327 4.64096 10.3269L4.94794 10.303C4.79268 10.2219 4.65122 10.1171 4.52875 9.99231C4.43289 9.8565 4.36481 9.7033 4.32837 9.5414C4.43994 9.58147 4.5559 9.60821 4.67382 9.62107C4.77208 9.62254 4.87019 9.61319 4.96637 9.59319C4.82431 9.43791 4.69812 9.26898 4.58966 9.08891C4.50444 8.8999 4.44798 8.69934 4.42215 8.49381C4.53168 8.56873 4.65155 8.62749 4.77802 8.66828C4.87493 8.68583 4.97295 8.69674 5.07137 8.70094C4.96007 8.5774 4.86028 8.44408 4.77321 8.30262C4.64096 8.08672 4.65699 7.65574 4.65699 7.65574L4.81018 7.74237C4.89464 7.78918 4.99483 7.84295 5.05775 7.87083C5.18058 7.91938 5.30641 7.96009 5.43446 7.99272C5.3234 7.79166 5.25007 7.57219 5.21805 7.34505C5.2084 7.12042 5.21913 6.89539 5.25011 6.67267C5.34989 6.79825 5.45694 6.91795 5.57071 7.03117C5.69204 7.11568 5.81957 7.19105 5.95223 7.25662C5.87552 7.04089 5.83939 6.81297 5.84563 6.58425C5.87317 6.34329 5.9344 6.10733 6.02758 5.8832C6.08308 6.00553 6.14543 6.12469 6.21433 6.2401L6.23608 6.26524C6.30315 6.3397 6.45478 6.49104 6.45478 6.49104C6.42298 6.29141 6.41357 6.08888 6.42673 5.88718C6.46156 5.67327 6.53429 5.4672 6.64154 5.27854C6.68542 5.40757 6.73625 5.53415 6.79382 5.65775C6.85143 5.74676 6.91723 5.83025 6.99038 5.90716L6.9926 5.90949C6.94755 5.72125 6.9308 5.52742 6.9429 5.33431C6.97058 5.15163 7.0445 4.97893 7.15771 4.83242C7.17335 4.92885 7.19831 5.02356 7.23225 5.11523C7.27535 5.18686 7.32944 5.25137 7.39255 5.30642C7.36601 5.13643 7.36601 4.96338 7.39255 4.79338C7.43423 4.5289 7.70274 4.32814 7.70274 4.32814L7.70097 4.45259C7.70034 4.55916 7.70161 4.71397 7.71156 4.83401C7.72483 4.9213 7.74496 5.00731 7.77169 5.09126C7.77005 5.01952 7.78271 4.94779 7.80934 4.88022C7.88388 4.70734 8.44494 4.4078 8.44494 4.4078L8.19006 5.00247C7.96993 5.52054 7.64432 6.29755 7.36594 7.00499L7.19734 7.44006C6.97528 8.03511 6.19882 10.288 6.89642 10.9738C7.70274 11.7664 7.58893 10.2974 7.56728 10.1907C7.54291 10.0934 7.51294 9.99769 7.47752 9.90388C7.65033 9.87669 7.82717 9.89033 7.99369 9.94371C8.14368 10.0028 8.27191 10.1053 8.36201 10.2375L8.38563 10.2743L9.09898 9.31277L8.73268 8.60216L8.75836 6.63159C8.76072 6.49417 8.76268 6.40717 8.76394 6.40341C8.78032 6.35564 8.80378 6.31063 8.83348 6.26986L8.85692 6.2401C8.89164 6.19122 8.94607 6.15981 9.006 6.15406L9.63278 8.0477C9.50474 8.07338 9.41837 8.19295 9.43481 8.32174C9.45004 8.51523 9.6392 8.53637 9.70454 8.53787L9.74852 8.53718C9.81369 8.53478 10.0024 8.51363 10.0183 8.32015C10.0337 8.19941 9.95877 8.08677 9.84384 8.052L9.82034 8.0461L10.4463 6.15327C10.5066 6.15919 10.5613 6.19088 10.5962 6.24011C10.637 6.28902 10.6685 6.3449 10.6892 6.40501L10.6908 6.44055C10.6952 6.59317 10.7035 7.20784 10.7101 7.74314L10.7204 8.60376L10.3533 9.31437L11.0691 10.2751C11.16 10.1253 11.298 10.0094 11.4618 9.94532C11.6281 9.89194 11.8047 9.8783 11.9772 9.90548C11.9423 9.99911 11.9126 10.0946 11.8882 10.1915L11.884 10.2203C11.8563 10.4511 11.7963 11.7244 12.5583 10.9754C13.3638 10.1835 12.2 7.29566 12.2 7.29566L12.1103 7.06476C11.6356 5.85447 11.0082 4.4126 11.0082 4.4126L11.097 4.4621C11.2583 4.55445 11.5877 4.75536 11.643 4.88501C11.6705 4.95419 11.6832 5.02781 11.6809 5.10127C11.709 5.01415 11.7302 4.92478 11.744 4.83403L11.7496 4.74639C11.759 4.55395 11.7536 4.32815 11.7536 4.32815V4.32814ZM9.72657 10.8224C9.7472 10.8237 9.76654 10.8321 9.78131 10.846L9.79149 10.8575L9.81633 11.3833L9.81185 11.3945C9.80291 11.4146 9.78067 11.455 9.7458 11.455C9.71094 11.455 9.68599 11.42 9.67569 11.4025L9.67046 11.3928V10.8623C9.67994 10.8394 9.70173 10.8239 9.72657 10.8224V10.8224ZM9.91652 10.8272C9.93708 10.8261 9.95723 10.832 9.97377 10.8437L9.98545 10.8535L10.0656 11.3211L10.062 11.3317C10.0548 11.3507 10.0361 11.3894 10.0031 11.3936C9.97554 11.3971 9.95111 11.3779 9.93667 11.363L9.92294 11.3466L9.86443 10.8686C9.87278 10.8463 9.8928 10.8304 9.91652 10.8272V10.8272ZM9.52619 10.8264C9.54534 10.8315 9.56215 10.8426 9.57419 10.858L9.58229 10.8702L9.51336 11.3394L9.50274 11.3546C9.48914 11.3716 9.46367 11.396 9.43321 11.3896C9.39895 11.3825 9.38046 11.3466 9.37336 11.3291L9.36989 11.3195L9.46447 10.8503C9.47617 10.8354 9.49366 10.8266 9.51218 10.8256L9.52619 10.8264H9.52619ZM9.34905 10.7977C9.3624 10.8037 9.37319 10.8139 9.37987 10.8266L9.38512 10.8399L9.2689 11.2383L9.2637 11.2457C9.25367 11.2588 9.23023 11.2841 9.20318 11.2757C9.17613 11.2673 9.16936 11.2357 9.16767 11.2204L9.16711 11.212L9.30096 10.8137C9.3104 10.8026 9.32414 10.7965 9.33836 10.7965L9.34905 10.7977H9.34905ZM10.0977 10.7977C10.1115 10.7947 10.1258 10.7963 10.1385 10.8019L10.1506 10.8089L10.2796 11.2008L10.2789 11.2102C10.2769 11.2272 10.27 11.262 10.2459 11.2685C10.2259 11.274 10.2052 11.2602 10.1926 11.2491L10.1802 11.2367L10.0672 10.8384C10.0685 10.8201 10.0804 10.8042 10.0977 10.7977Z" fill="#261256"/>
<defs>
<linearGradient id="paint0_linear" x1="10" y1="0" x2="10" y2="20" gradientUnits="userSpaceOnUse">
<stop stop-color="#9C97FF"/>
<stop offset="1" stop-color="#B297FF"/>
</linearGradient>
</defs>
</svg>
