<svg width="42" height="42" viewBox="0 0 42 42" fill="none" xmlns="http://www.w3.org/2000/svg">
<circle cx="21" cy="21" r="20.5" fill="#2D3947" stroke="#475264"/>
<path d="M24.755 10L24.8152 10.0495C24.9487 10.165 25.2627 10.4712 25.3267 10.843C25.3761 11.1521 25.3761 11.4667 25.3267 11.7758C25.4439 11.676 25.5442 11.5587 25.6236 11.4282C25.6865 11.261 25.7328 11.0883 25.7617 10.9125C25.9718 11.1787 26.1087 11.4928 26.1596 11.825C26.1825 12.1746 26.1519 12.5256 26.069 12.8665C26.2058 12.725 26.3286 12.5713 26.4358 12.4073C26.5427 12.1825 26.6374 11.9524 26.7194 11.7179C26.9179 12.0614 27.0526 12.4366 27.1173 12.8259C27.1407 13.1927 27.1228 13.5609 27.0638 13.9238L27.3445 13.6435C27.4151 13.5714 27.4794 13.5039 27.5093 13.4676C27.6357 13.2598 27.7497 13.045 27.8508 12.8245C28.0232 13.2314 28.1362 13.66 28.1863 14.0976C28.1989 14.5136 28.132 14.9281 27.9889 15.3201C28.2347 15.2016 28.471 15.065 28.6956 14.9117C28.9067 14.7061 29.105 14.4884 29.2895 14.2599C29.3461 14.6649 29.3654 15.074 29.3474 15.4823C29.2894 15.8961 29.1545 16.2962 28.9495 16.6628C29.1888 16.6023 29.4239 16.5268 29.6533 16.4369C29.8879 16.3369 30.3957 16.0472 30.3957 16.0472L30.396 16.1505C30.393 16.3763 30.365 16.9187 30.1745 17.2263C30.0132 17.4835 29.8283 17.7259 29.6221 17.9505C29.8044 17.9428 29.986 17.923 30.1656 17.8911C30.4001 17.817 30.6223 17.7096 30.8248 17.5724C30.7772 17.946 30.6731 18.3106 30.516 18.6544C30.3145 18.9823 30.0802 19.2899 29.8166 19.5727C29.9949 19.6082 30.1766 19.6252 30.3586 19.6234C30.5771 19.6002 30.7919 19.5516 30.9985 19.4786C30.9306 19.7728 30.8046 20.0513 30.6273 20.2984C30.4291 20.4972 30.2036 20.6681 29.9575 20.8061L29.8508 20.8633L30.4195 20.9068C30.6138 20.9071 30.8079 20.8925 31 20.8633C30.9285 21.25 30.7281 21.6029 30.4298 21.8671C30.1223 22.1115 29.7695 22.2959 29.3905 22.4102C29.5708 22.4922 29.7601 22.554 29.9547 22.5942C30.1319 22.6221 30.3112 22.6362 30.4907 22.6362C30.3968 22.913 30.2074 23.1495 29.9547 23.3054C29.7496 23.4442 29.5124 23.5313 29.2643 23.5588C29.379 23.6104 29.5004 23.6465 29.6251 23.666L29.6993 23.6701C29.8589 23.6756 30.0705 23.666 30.0705 23.666L29.9594 23.7912C29.7347 24.0336 29.1914 24.5688 28.5323 24.8595C27.8566 25.1576 27.0708 25.1674 26.7534 25.1569C26.8027 25.2357 26.8486 25.3163 26.8916 25.3984C26.9972 25.6802 27.0692 25.9728 27.1062 26.2703L27.1218 26.4195V29.3816C27.0517 29.5848 26.9196 29.7622 26.7431 29.89C26.5914 29.975 26.417 30.0119 26.2438 29.9966L26.1789 29.9885C26.0073 29.9815 25.8416 29.9256 25.7023 29.8277C25.5784 29.7042 25.4893 29.5515 25.444 29.3845V27.0336C25.4492 26.7627 25.4076 26.4929 25.3207 26.2356C25.2021 26.0112 25.0576 25.8008 24.8901 25.6084L21 20.6837V20.6764V20.6736L17.1099 25.6055C16.9422 25.7981 16.7973 26.0085 16.6778 26.2327C16.6034 26.4533 16.5622 26.683 16.5552 26.9147L16.5546 27.0307V29.3845C16.5088 29.5518 16.4198 29.7049 16.2962 29.8291C16.1769 29.9123 16.0386 29.9648 15.8939 29.9825L15.8211 29.9885C15.6265 30.0204 15.4266 29.9856 15.2554 29.89C15.0784 29.7624 14.9457 29.5849 14.8753 29.3816V26.4181C14.9056 26.0688 14.983 25.725 15.1054 25.3955C15.1487 25.3129 15.1948 25.2319 15.2438 25.1526L15.1506 25.1547C14.7904 25.159 14.0841 25.1267 13.4677 24.8552C12.5961 24.4713 11.9295 23.6617 11.9295 23.6617L12.0932 23.6666C12.1849 23.6682 12.2962 23.6682 12.3749 23.6617C12.4996 23.6421 12.621 23.6061 12.7357 23.5545C12.5189 23.5311 12.3104 23.4614 12.1248 23.3509L12.0468 23.301C11.7937 23.1459 11.6038 22.9099 11.5093 22.6333C11.6888 22.6324 11.868 22.6178 12.0453 22.5898C12.2402 22.5496 12.4299 22.4884 12.611 22.4073C12.232 22.2925 11.8791 22.1076 11.5716 21.8627C11.273 21.6004 11.0719 21.249 11 20.8633C11.1916 20.8925 11.3852 20.907 11.5791 20.9067L12.1477 20.8633C11.8601 20.7159 11.5981 20.5253 11.3712 20.2984C11.1936 20.0515 11.0675 19.7729 11 19.4786C11.2067 19.5514 11.4215 19.6 11.6399 19.6234C11.822 19.6261 12.0037 19.6091 12.1819 19.5727C11.9187 19.2904 11.685 18.9833 11.484 18.6559C11.3262 18.3122 11.2216 17.9476 11.1737 17.5739C11.3766 17.7101 11.5987 17.8169 11.833 17.8911C12.0125 17.923 12.1941 17.9428 12.3764 17.9505C12.1702 17.7259 11.9853 17.4835 11.8241 17.2263C11.5791 16.8337 11.6088 16.0501 11.6088 16.0501L11.8925 16.2076C12.049 16.2927 12.2346 16.3905 12.3511 16.4412C12.5787 16.5295 12.8118 16.6035 13.049 16.6628C12.8433 16.2973 12.7074 15.8982 12.6481 15.4852C12.6302 15.0768 12.6501 14.6677 12.7075 14.2628C12.8923 14.4911 13.0906 14.7087 13.3014 14.9146C13.5262 15.0682 13.7624 15.2052 14.0082 15.3245C13.8661 14.9322 13.7991 14.5178 13.8107 14.102C13.8617 13.6639 13.9751 13.2349 14.1477 12.8274C14.2505 13.0498 14.366 13.2664 14.4937 13.4763L14.534 13.522C14.6582 13.6574 14.9391 13.9325 14.9391 13.9325C14.8802 13.5695 14.8628 13.2013 14.8872 12.8346C14.9517 12.4457 15.0864 12.071 15.2851 11.728C15.3664 11.9626 15.4605 12.1927 15.5672 12.4174C15.6739 12.5793 15.7958 12.7311 15.9313 12.8709L15.9354 12.8752C15.852 12.5329 15.8209 12.1805 15.8434 11.8294C15.8946 11.4972 16.0316 11.1832 16.2413 10.9169C16.2702 11.0922 16.3165 11.2644 16.3794 11.4311C16.4592 11.5613 16.5594 11.6786 16.6763 11.7787C16.6272 11.4696 16.6272 11.155 16.6763 10.8459C16.7535 10.365 17.2509 10 17.2509 10L17.2476 10.2263C17.2465 10.42 17.2488 10.7015 17.2673 10.9198C17.2919 11.0785 17.3291 11.2348 17.3787 11.3875C17.3756 11.257 17.3991 11.1266 17.4484 11.0038C17.5865 10.6895 18.6258 10.1448 18.6258 10.1448L18.1537 11.226C17.7459 12.168 17.1427 13.5807 16.627 14.867L16.3147 15.658C15.9033 16.7399 14.4649 20.836 15.7572 22.0829C17.2509 23.5241 17.0401 20.8532 17 20.6591C16.9549 20.4823 16.8993 20.3082 16.8337 20.1376C17.1538 20.0882 17.4814 20.113 17.7899 20.21C18.0677 20.3174 18.3053 20.5039 18.4722 20.7443L18.516 20.8111L19.8374 19.0629L19.1589 17.7709L19.2064 14.1881C19.2108 13.9382 19.2144 13.78 19.2168 13.7732C19.2471 13.6863 19.2906 13.6045 19.3456 13.5304L19.389 13.4763C19.4533 13.3874 19.5542 13.3303 19.6652 13.3198L20.8263 16.7628C20.5891 16.8095 20.4291 17.0269 20.4595 17.261C20.4877 17.6128 20.8382 17.6513 20.9592 17.654L21.0407 17.6527C21.1614 17.6484 21.511 17.6099 21.5405 17.2581C21.569 17.0386 21.4302 16.8338 21.2173 16.7706L21.1737 16.7599L22.3333 13.3184C22.445 13.3291 22.5464 13.3868 22.611 13.4763C22.6865 13.5652 22.7449 13.6668 22.7832 13.7761L22.7863 13.8407C22.7944 14.1182 22.8097 15.2358 22.822 16.209L22.8411 17.7738L22.1611 19.0658L23.487 20.8126C23.6554 20.5402 23.9111 20.3295 24.2145 20.213C24.5225 20.1159 24.8496 20.0911 25.1693 20.1405C25.1045 20.3108 25.0495 20.4844 25.0044 20.6605L24.9965 20.7129C24.9452 21.1327 24.8342 23.4477 26.2457 22.0858C27.7379 20.646 25.582 15.3955 25.582 15.3955L25.4157 14.9756C24.5364 12.7751 23.3742 10.1536 23.3742 10.1536L23.5387 10.2436C23.8374 10.4115 24.4477 10.7768 24.5501 11.0125C24.6011 11.1383 24.6247 11.2721 24.6203 11.4057C24.6723 11.2473 24.7116 11.0848 24.7372 10.9198L24.7476 10.7604C24.765 10.4106 24.755 10 24.755 10V10ZM21 21.8077C21.0382 21.81 21.0741 21.8254 21.1014 21.8506L21.1203 21.8714L21.1663 22.8274L21.158 22.8477C21.1414 22.8844 21.1002 22.9577 21.0356 22.9577C20.9711 22.9577 20.9248 22.8942 20.9058 22.8624L20.8961 22.8448V21.8801C20.9136 21.8385 20.954 21.8104 21 21.8077V21.8077ZM21.3519 21.8164C21.39 21.8144 21.4273 21.8251 21.4579 21.8463L21.4796 21.8642L21.6281 22.7144L21.6215 22.7336C21.608 22.7683 21.5735 22.8386 21.5123 22.8462C21.4612 22.8525 21.416 22.8176 21.3892 22.7905L21.3638 22.7608L21.2554 21.8917C21.2709 21.8511 21.308 21.8222 21.3519 21.8164V21.8164ZM20.6288 21.8149C20.6643 21.8242 20.6954 21.8444 20.7177 21.8723L20.7327 21.8946L20.6051 22.7477L20.5854 22.7752C20.5602 22.8061 20.513 22.8506 20.4566 22.839C20.3931 22.8259 20.3589 22.7608 20.3457 22.729L20.3393 22.7115L20.5145 21.8584C20.5362 21.8313 20.5686 21.8153 20.6029 21.8135L20.6288 21.8149H20.6288ZM20.3007 21.7628C20.3254 21.7736 20.3454 21.7922 20.3578 21.8152L20.3675 21.8395L20.1522 22.5638L20.1426 22.5773C20.124 22.6012 20.0806 22.6471 20.0304 22.6318C19.9803 22.6166 19.9678 22.5591 19.9647 22.5312L19.9636 22.516L20.2116 21.7917C20.2291 21.7717 20.2545 21.7605 20.2809 21.7606L20.3007 21.7628H20.3007ZM21.6875 21.7628C21.7131 21.7573 21.7395 21.7601 21.7631 21.7704L21.7855 21.7831L22.0245 22.4957L22.0231 22.5127C22.0195 22.5436 22.0067 22.6069 21.9621 22.6188C21.925 22.6288 21.8867 22.6036 21.8633 22.5834L21.8404 22.5609L21.631 21.8366C21.6335 21.8034 21.6555 21.7746 21.6875 21.7628Z" fill="#777D9A"/>
</svg>
