<svg width="14" height="14" viewBox="0 0 14 14" fill="none" xmlns="http://www.w3.org/2000/svg">
<path d="M9.62851 5.05732e-06L9.67068 0.0346424C9.76412 0.115522 9.98392 0.329833 10.0287 0.590099C10.0633 0.806439 10.0633 1.02672 10.0287 1.24305C10.1107 1.17322 10.1809 1.09108 10.2365 0.999717C10.2806 0.882715 10.3129 0.761838 10.3332 0.638766C10.4802 0.8251 10.5761 1.04496 10.6117 1.27753C10.6277 1.52225 10.6064 1.76793 10.5483 2.00653C10.6441 1.90751 10.73 1.79989 10.805 1.68512C10.8799 1.52778 10.9462 1.36668 11.0036 1.2025C11.1426 1.44301 11.2369 1.7056 11.2821 1.97814C11.2985 2.23488 11.286 2.49261 11.2447 2.74668L11.4411 2.55048C11.4906 2.49996 11.5356 2.45271 11.5565 2.4273C11.645 2.28184 11.7248 2.13153 11.7955 1.97712C11.9162 2.262 11.9953 2.56201 12.0304 2.86835C12.0393 3.15949 11.9924 3.4497 11.8922 3.72409C12.0643 3.64111 12.2297 3.54553 12.3869 3.43816C12.5347 3.29425 12.6735 3.1419 12.8027 2.9819C12.8422 3.26541 12.8558 3.55179 12.8432 3.83764C12.8026 4.1273 12.7082 4.40732 12.5647 4.66398C12.7322 4.62159 12.8967 4.56876 13.0573 4.50581C13.2215 4.43585 13.577 4.23307 13.577 4.23307L13.5772 4.30533C13.5751 4.46344 13.5555 4.8431 13.4221 5.05839C13.3092 5.23843 13.1798 5.40811 13.0355 5.56534C13.1631 5.55999 13.2902 5.54611 13.4159 5.52377C13.5801 5.4719 13.7356 5.39674 13.8774 5.30071C13.844 5.5622 13.7712 5.81743 13.6612 6.0581C13.5201 6.2876 13.3562 6.50292 13.1716 6.70092C13.2965 6.72572 13.4236 6.73762 13.551 6.7364C13.7039 6.72017 13.8543 6.68613 13.999 6.63501C13.9515 6.84097 13.8632 7.03591 13.7391 7.20888C13.6004 7.34805 13.4425 7.46764 13.2703 7.5643L13.1955 7.60431L13.5936 7.63473C13.7297 7.63494 13.8656 7.62477 14 7.60431C13.95 7.87503 13.8097 8.12204 13.6009 8.30695C13.3856 8.47805 13.1386 8.60713 12.8733 8.68716C12.9996 8.74457 13.1321 8.78777 13.2683 8.81593C13.3924 8.83548 13.5178 8.84531 13.6435 8.84533C13.5778 9.03912 13.4452 9.20467 13.2683 9.31376C13.1247 9.41093 12.9587 9.47189 12.785 9.49119C12.8653 9.52729 12.9503 9.55253 13.0376 9.56622L13.0895 9.56909C13.2012 9.57292 13.3494 9.56622 13.3494 9.56622L13.2716 9.65382C13.1143 9.8235 12.734 10.1981 12.2726 10.4017C11.7996 10.6103 11.2495 10.6172 11.0274 10.6099C11.0619 10.665 11.094 10.7214 11.1241 10.7789C11.1981 10.9761 11.2484 11.1809 11.2743 11.3892L11.2852 11.4937V13.5671C11.2362 13.7093 11.1437 13.8335 11.0202 13.923C10.914 13.9825 10.7919 14.0083 10.6706 13.9976L10.6252 13.9919C10.5051 13.9871 10.3891 13.9479 10.2916 13.8794C10.2048 13.7929 10.1425 13.6861 10.1108 13.5691V11.9235C10.1145 11.7339 10.0853 11.545 10.0245 11.3649C9.94147 11.2078 9.84034 11.0606 9.72309 10.9259L7 7.47858V7.47352V7.47149L4.27691 10.9238C4.15955 11.0587 4.0581 11.2059 3.97446 11.3629C3.9224 11.5173 3.89353 11.6781 3.88864 11.8403L3.8882 11.9215V13.5691C3.85615 13.6862 3.79389 13.7934 3.70735 13.8804C3.62386 13.9386 3.52702 13.9754 3.42573 13.9878L3.37476 13.9919C3.23856 14.0143 3.09863 13.9899 2.97877 13.923C2.85487 13.8337 2.76201 13.7095 2.71269 13.5671V11.4926C2.7339 11.2482 2.78807 11.0075 2.87379 10.7768C2.90409 10.719 2.93639 10.6623 2.97064 10.6068L2.90545 10.6083C2.65328 10.6113 2.15888 10.5887 1.72739 10.3986C1.1173 10.1299 0.65063 9.56317 0.65063 9.56317L0.765217 9.56659C0.829397 9.56773 0.907347 9.56773 0.962434 9.56317C1.04973 9.54949 1.1347 9.52424 1.21499 9.48814C1.0632 9.47177 0.917251 9.42301 0.787382 9.34562L0.732738 9.31071C0.555618 9.20211 0.422636 9.03691 0.356495 8.8433C0.482181 8.84265 0.607626 8.83248 0.731699 8.81288C0.868145 8.78475 1.00096 8.74191 1.12769 8.68513C0.862368 8.60472 0.615369 8.4753 0.400148 8.3039C0.191092 8.12031 0.0503607 7.87427 0 7.6043C0.134096 7.62473 0.269624 7.6349 0.405345 7.63472L0.803415 7.6043C0.602085 7.50112 0.418648 7.36768 0.259837 7.20888C0.135537 7.03603 0.0472539 6.84105 0 6.63501C0.144675 6.686 0.295048 6.72003 0.447959 6.7364C0.575368 6.73827 0.702597 6.72637 0.82732 6.70091C0.643106 6.50328 0.479471 6.28829 0.338827 6.05911C0.228312 5.81855 0.155103 5.56329 0.121603 5.30172C0.263638 5.39707 0.419073 5.47186 0.583072 5.52377C0.708748 5.5461 0.835847 5.55999 0.963474 5.56534C0.81915 5.4081 0.689742 5.23842 0.576836 5.05838C0.405344 4.78361 0.426132 4.23509 0.426132 4.23509L0.624776 4.34535C0.734297 4.40492 0.864215 4.47336 0.945805 4.50884C1.10509 4.57063 1.26825 4.62245 1.4343 4.66397C1.29029 4.40808 1.1952 4.12876 1.15367 3.83967C1.14117 3.55378 1.15508 3.26738 1.19525 2.98393C1.32464 3.14375 1.46345 3.29609 1.61099 3.44019C1.76832 3.54775 1.93369 3.64367 2.10572 3.72712C2.00624 3.45256 1.95938 3.16249 1.96748 2.87138C2.00318 2.56471 2.08259 2.2644 2.20341 1.97915C2.27538 2.13485 2.35623 2.28649 2.44558 2.43338L2.47379 2.46538C2.56075 2.56015 2.75738 2.75276 2.75738 2.75276C2.71614 2.49868 2.70394 2.24092 2.72101 1.98422C2.76617 1.71197 2.86048 1.4497 2.99955 1.20959C3.05646 1.3738 3.12238 1.53491 3.19703 1.69221C3.27173 1.80549 3.35706 1.91176 3.45191 2.00964L3.45479 2.01261C3.39637 1.77304 3.37465 1.52634 3.39035 1.28056C3.42624 1.04807 3.52209 0.828272 3.66889 0.641802C3.68917 0.764535 3.72154 0.885073 3.76555 1.00174C3.82144 1.09291 3.89158 1.17501 3.97342 1.24508C3.93901 1.02872 3.93901 0.808478 3.97342 0.592122C4.02747 0.255505 4.37565 0 4.37565 0L4.37335 0.158383C4.37254 0.294022 4.37418 0.491053 4.38708 0.64383C4.4043 0.754929 4.43039 0.864392 4.46506 0.971233C4.46293 0.87993 4.47935 0.788638 4.51388 0.702637C4.61054 0.482619 5.33808 0.10139 5.33808 0.10139L5.00758 0.858227C4.72212 1.51758 4.29989 2.5065 3.93891 3.40687L3.72028 3.96059C3.43232 4.71792 2.42546 7.5852 3.33007 8.45801C4.37565 9.46685 4.22806 7.59721 4.2 7.46134C4.1684 7.3376 4.12953 7.21573 4.08359 7.09634C4.30769 7.06173 4.53699 7.07909 4.75293 7.14703C4.94742 7.22221 5.11371 7.35273 5.23055 7.52099L5.26117 7.5678L6.18619 6.34402L5.71121 5.43962L5.74451 2.93164C5.74756 2.75674 5.75011 2.64601 5.75174 2.64124C5.77298 2.58043 5.8034 2.52315 5.84192 2.47126L5.87231 2.43339C5.91733 2.37117 5.98792 2.33119 6.06562 2.32388L6.87839 4.73394C6.71236 4.76663 6.60035 4.91881 6.62167 5.08273C6.64142 5.32897 6.88672 5.35589 6.97144 5.3578L7.02847 5.35691C7.11298 5.35386 7.35771 5.32695 7.37832 5.0807C7.39831 4.92702 7.30111 4.78367 7.15208 4.73942L7.1216 4.73191L7.93333 2.32287C8.0115 2.3304 8.08245 2.37074 8.12769 2.43339C8.18058 2.49564 8.22143 2.56676 8.24825 2.64327L8.25038 2.6885C8.25609 2.88274 8.26678 3.66505 8.27543 4.34633L8.28879 5.44165L7.81277 6.34606L8.7409 7.56883C8.8588 7.37815 9.03778 7.23064 9.25018 7.14907C9.46576 7.08114 9.69473 7.06378 9.91848 7.09838C9.87318 7.21754 9.83466 7.33906 9.80311 7.46237L9.79757 7.49902C9.76165 7.79286 9.68393 9.4134 10.672 8.46005C11.7165 7.45223 10.2074 3.77682 10.2074 3.77682L10.091 3.48294C9.47545 1.94259 8.66192 0.107492 8.66192 0.107492L8.77709 0.170497C8.98619 0.288031 9.41336 0.543725 9.48508 0.708739C9.52079 0.796779 9.53727 0.890482 9.53422 0.983969C9.57064 0.873097 9.59814 0.759357 9.61604 0.64385L9.62333 0.532309C9.63548 0.28739 9.62851 1.84592e-05 9.62851 1.84592e-05V5.05732e-06ZM7 8.26538C7.02676 8.26697 7.05184 8.27775 7.071 8.29545L7.08419 8.30999L7.11641 8.97917L7.1106 8.99342C7.099 9.01909 7.07016 9.07042 7.02495 9.07042C6.97974 9.07042 6.94739 9.02593 6.93404 9.00369L6.92725 8.99133V8.31607C6.93954 8.28697 6.9678 8.26728 7 8.26538V8.26538ZM7.24633 8.27146C7.27298 8.27007 7.29911 8.27758 7.32056 8.29243L7.33571 8.30492L7.43965 8.90008L7.43502 8.9135C7.42562 8.93779 7.40145 8.98703 7.35858 8.99235C7.32285 8.99678 7.29118 8.97231 7.27246 8.95333L7.25464 8.93253L7.17877 8.32418C7.1896 8.2958 7.21557 8.27554 7.24633 8.27146V8.27146ZM6.74017 8.27045C6.76501 8.27692 6.78681 8.29111 6.80242 8.31062L6.81292 8.32621L6.72354 8.9234L6.70976 8.94267C6.69213 8.9643 6.6591 8.99539 6.6196 8.98728C6.57517 8.97815 6.5512 8.93253 6.54199 8.91029L6.53749 8.89806L6.66014 8.30086C6.67531 8.28194 6.69799 8.27069 6.722 8.26946L6.74017 8.27045H6.74017ZM6.51047 8.23395C6.52778 8.24155 6.54177 8.25455 6.55043 8.27065L6.55724 8.28768L6.40654 8.79464L6.3998 8.80408C6.38679 8.82081 6.35639 8.85294 6.32131 8.84229C6.28623 8.83164 6.27746 8.79134 6.27527 8.77186L6.27454 8.76118L6.44811 8.25422C6.46034 8.24017 6.47817 8.23236 6.49661 8.23241L6.51047 8.23395H6.51047ZM7.48122 8.23395C7.49914 8.23013 7.51768 8.23208 7.53414 8.23925L7.54982 8.24814L7.71715 8.74698L7.71618 8.75888C7.71364 8.78051 7.70468 8.8248 7.6735 8.83316C7.64752 8.84013 7.62072 8.82255 7.60428 8.80838L7.58827 8.79261L7.44173 8.28566C7.44343 8.26238 7.45884 8.24219 7.48122 8.23395Z" fill="white"/>
</svg>
