<svg width="140" height="20" viewBox="0 0 140 20" fill="none" xmlns="http://www.w3.org/2000/svg">
<path d="M12.0756 6.4886V6.3974C12.0756 5.60912 11.4239 4.95766 10.6354 4.95766H4.23591C3.44738 4.95766 2.7957 5.60912 2.7957 6.3974V6.4886C2.7957 7.27688 3.44738 7.92834 4.23591 7.92834H9.91203C11.3783 7.92834 12.6817 8.56027 13.5875 9.55049C13.6527 9.61564 13.6983 9.6873 13.77 9.75245C14.4673 10.6059 14.8974 11.7134 14.8974 12.9055C14.8974 15.6547 12.6686 17.8827 9.91855 17.8827H4.97882C2.22874 17.8827 0 15.6547 0 12.9055H2.81525C2.81525 14.0977 3.78625 15.0684 4.97882 15.0684H9.91203C11.1046 15.0684 12.0952 14.0977 12.0952 12.9055C12.0952 11.7134 11.1046 10.7427 9.91203 10.7427H4.23591C3.08896 10.7427 2.05279 10.2932 1.28381 9.55049C1.08179 9.34854 0.899316 9.12053 0.742913 8.87297C0.267188 8.20196 0 7.36808 0 6.46906V6.37785C0 4.03258 1.88987 2.12378 4.23591 2.12378H10.6354C12.9814 2.12378 14.8909 4.03909 14.8909 6.37785V6.46906L12.0756 6.4886Z" fill="white"/>
<path d="M26.0215 8.4495L32.8511 17.8892H29.3842L23.9296 10.3648L19.9414 13.987V17.8827H17.1261V2.11725H19.9414V10.1824L22.2613 8.06514L24.3597 6.14982L28.752 2.11725H32.9228L26.0215 8.4495Z" fill="white"/>
<path d="M35.1711 17.8827V2.11725H37.9864V17.8827H35.1711Z" fill="white"/>
<path d="M56.0052 2.14331L53.19 2.11725V12.1629L43.0499 4.34526L40.2346 2.1824V17.9023H43.0499V7.92833L53.19 15.7459L56.0052 17.9088V13.2247C55.7315 12.1824 55.5882 11.101 55.5882 10.0065C55.5882 8.90553 55.7315 7.81758 56.0052 6.7622V2.14331Z" fill="white"/>
<path d="M59.9284 4.46909C61.3817 6.81436 62.2223 9.58309 62.2223 12.5473C62.2223 14.215 61.9552 15.8241 61.4664 17.329C59.4983 15.5049 58.2667 12.8925 58.2667 9.99352C58.2601 7.95443 58.8727 6.05215 59.9284 4.46909Z" fill="white"/>
<path d="M72.8055 18.9186C71.4435 19.6091 69.9056 20 68.2699 20C66.6472 20 65.1157 19.6157 63.7603 18.9251C63.9362 18.456 64.0926 17.9805 64.2295 17.4984L68.2699 13.4593L68.8955 12.8339L68.5436 13.7329L72.3103 17.4984L72.3298 17.4788C72.4667 17.974 72.6231 18.4495 72.8055 18.9186Z" fill="white"/>
<path d="M71.639 12.5277C71.639 13.101 71.6651 13.2052 71.7172 13.7655L68.2633 10.3127L64.842 13.7459C64.8942 13.2052 64.9137 13.1075 64.9137 12.5538C64.9137 8.78176 63.7602 5.28339 61.7856 2.38437C63.5321 0.899023 65.7935 0 68.2698 0C70.7462 0 73.0075 0.899023 74.754 2.38437C72.786 5.27688 71.639 8.76873 71.639 12.5277Z" fill="white"/>
<path d="M78.2731 10C78.2731 12.886 77.0479 15.4854 75.0929 17.316C74.5976 15.8111 74.3304 14.202 74.3304 12.5277C74.3304 9.57657 75.1646 6.81435 76.6048 4.47559C77.6605 6.05865 78.2731 7.96093 78.2731 10Z" fill="white"/>
<path d="M89.2147 15.0815L82.6132 2.13031L80.4301 6.41696C80.7689 7.57005 80.9449 8.78178 80.9449 10.0065C80.9449 10.6319 80.8993 11.2508 80.808 11.8567L82.6067 8.32575L86.054 15.0815L87.4942 17.8958H90.6484L89.2147 15.0815Z" fill="white"/>
<path d="M92.5905 10.013C92.5905 12.8078 94.8649 15.0814 97.6606 15.0814H102.731V12.0651H97.6606V9.25079H105.546V17.9023H97.6606C93.3139 17.9023 89.7753 14.3648 89.7753 10.0195C89.7753 5.67424 93.3139 2.13678 97.6606 2.13678H105.546V4.95111H97.6606C94.8649 4.9446 92.5905 7.21822 92.5905 10.013Z" fill="white"/>
<path d="M110.616 6.39085V7.85665H120.756V10.671H110.616V13.6417C110.616 14.4299 111.268 15.0814 112.056 15.0814H123.571V17.8957H112.056C109.71 17.8957 107.82 15.9804 107.82 13.6417V6.39085C107.82 4.04558 109.71 2.13678 112.056 2.13678H123.571V4.95111H112.056C111.268 4.9446 110.616 5.60258 110.616 6.39085Z" fill="white"/>
<path d="M138.553 15.101L139.994 17.9153H136.839L135.399 15.101L133.887 12.1498L133.822 12.013C133.327 11.2052 132.447 10.6645 131.437 10.6645H128.622V17.9153H125.807V2.14981H135.764C136.937 2.14981 137.993 2.62538 138.762 3.3876C139.531 4.17587 140 5.23125 140 6.40388C140 8.11724 138.983 9.60258 137.524 10.2801C137.139 10.4625 136.735 10.5733 136.305 10.6189L138.553 15.101ZM135.758 7.85014C135.96 7.85014 136.162 7.80454 136.344 7.71333C136.865 7.48532 137.198 6.97066 137.198 6.40388C137.198 5.88271 136.931 5.52441 136.768 5.36805C136.585 5.18564 136.246 4.96414 135.751 4.96414H128.609V7.86968L135.758 7.85014Z" fill="white"/>
</svg>
