<svg xmlns="http://www.w3.org/2000/svg" viewBox="0 0 309.33 219.5">
  <defs>
    <style>
      .cls-2{fill:#f6f6f6}.cls-3{fill:#1d2127}
    </style>
  </defs>
  <g id="Layer_2" data-name="Layer 2">
    <g id="Ebene_1" data-name="Ebene 1">
      <path fill="none" d="M176.76 70.26h-61.63L104.33 89H166l10.82-18.74z"/>
      <path d="M280.34 94.56l29-50.21h-56.59L229.32 9.69a22.08 22.08 0 00-30.62-5.91l-32.26 21.81h-81.9L0 172.17h64.82l24.81 36.7a24.07 24.07 0 0015.43 10.19 25.11 25.11 0 004.63.44 24 24 0 0013.48-4.15l36.11-24.42h84a21.18 21.18 0 0013.66-3.5l41.59-28.13a21.2 21.2 0 005.69-29.43z" class="cls-2"/>
      <path d="M298 134l-26.45-39.13 24.86-43.06h-47.62l-25.65-37.94A14.59 14.59 0 00202.88 10l-34.15 23.1H88.85L12.91 164.72h55.87l27 40a16.7 16.7 0 0023.22 4.45l38-25.7h86.64a13.6 13.6 0 009.13-2.22l41.6-28.12A13.76 13.76 0 00298 134z" class="cls-3"/>
      <path fill="#ec4a4b" d="M263.56 70.78h-87.28l-10.82 18.73h50.44l-82.86 56.26-10.82 18.74h87.28l10.82-18.74h-50.45l82.87-56.26 10.82-18.73z"/>
      <path d="M176.26 70.75l10.82-18.73H99.81l-54.06 93.73h87.27l10.82-18.74H82.21l10.8-18.76h61.63l10.82-18.74h-61.63l10.8-18.76h61.63zM257.43 105.88l-31.55 21.31a3.92 3.92 0 00-1.64 2.49 3.85 3.85 0 00.6 2.91l21.33 31.55 31.56-21.33a3.91 3.91 0 001-5.4z" class="cls-2"/>
      <path d="M244.08 129.87a5.17 5.17 0 11-7.19-1.33 5.17 5.17 0 017.19 1.33zM258.27 120.1a5.17 5.17 0 11-7.19-1.33 5.17 5.17 0 017.19 1.33zM253.85 144.06a5.17 5.17 0 11-7.19-1.33 5.16 5.16 0 017.19 1.33zM268 134.29a5.17 5.17 0 11-7.19-1.33 5.16 5.16 0 017.19 1.33z" class="cls-3"/>
    </g>
  </g>
</svg>
