<svg width="20" height="20" viewBox="0 0 20 20" fill="none" xmlns="http://www.w3.org/2000/svg">
<circle cx="10" cy="10" r="10" fill="url(#paint0_linear)"/>
<path d="M15.6229 8.33207C15.6235 8.64309 15.6021 8.95376 15.5586 9.26168C15.4935 9.59874 15.1851 10.0312 15.1851 10.0312C14.8939 10.3628 14.5678 10.6616 14.2125 10.9224L12.6819 12.0667C12.4913 11.9226 12.2289 11.9226 12.0383 12.0667C11.7008 12.3137 11.834 12.6546 11.9197 12.7154C12.0054 12.7762 12.2832 12.7446 12.2832 12.7446L12.2748 12.9086C12.1579 12.9517 12.0325 12.9662 11.909 12.9509C11.7681 12.9332 11.6518 12.7639 11.6518 12.7639L11.4873 12.56C11.2384 12.8172 10.9786 13.0635 10.7088 13.2981C11.1868 13.7095 11.729 14.2292 11.7822 14.2804L11.7865 14.2845L12.2273 14.2476C12.2341 14.2726 12.2362 14.2987 12.2334 14.3245C12.2265 14.3568 11.9365 14.7347 11.9365 14.7347C11.9596 14.8215 11.94 14.9142 11.8837 14.984C11.8289 15.046 11.7475 15.0773 11.6656 15.0679C11.5648 15.1748 11.458 15.2758 11.3457 15.3703C11.3206 15.3766 11.2943 15.3766 11.2692 15.3703L11.221 14.9517C11.221 14.9517 10.4848 14.4772 9.82349 13.9979C9.16173 14.4772 8.42539 14.9517 8.42539 14.9517L8.37717 15.3703C8.35208 15.3769 8.32574 15.3769 8.30065 15.3703C8.18811 15.2758 8.08105 15.1748 7.97999 15.0679C7.89806 15.0772 7.81675 15.0459 7.76189 14.984C7.70598 14.914 7.68639 14.8215 7.70908 14.7347C7.70908 14.7347 7.41904 14.3568 7.41215 14.3245C7.4099 14.2987 7.41223 14.2726 7.41904 14.2476L7.85984 14.2845L7.8641 14.2804C7.91734 14.2292 8.45953 13.7091 8.93773 13.2974C8.66785 13.0632 8.40839 12.8171 8.15984 12.56L7.9953 12.7639C7.9953 12.7639 7.87821 12.9332 7.73817 12.9509C7.61462 12.9662 7.48922 12.9517 7.37236 12.9086L7.36318 12.7446C7.36318 12.7446 7.64174 12.7762 7.72745 12.7154C7.81316 12.6546 7.94632 12.3137 7.60807 12.0667C7.4176 11.923 7.1557 11.923 6.96523 12.0667L5.43466 10.9224C5.07919 10.6615 4.75281 10.3627 4.46122 10.0312C4.46122 10.0312 4.15281 9.59874 4.08853 9.26168C4.04455 8.9538 4.02281 8.64312 4.02345 8.33207L4.78647 9.06699C4.78647 9.06699 6.19535 10.1028 7.00578 10.6299C7.49042 10.944 7.94834 11.298 8.37488 11.6881C8.37488 11.6881 8.72461 11.5226 8.78813 11.4164C8.85165 11.3102 8.76517 11.1509 8.76517 11.1509L8.86848 11.1332C8.86848 11.1332 9.04067 11.3248 9.04679 11.4641C9.05292 11.6034 8.87078 11.7342 8.87078 11.7342L8.68252 11.9228C8.68252 11.9228 9.2925 12.2832 9.82286 12.633C10.3534 12.2832 10.9638 11.9228 10.9638 11.9228L10.7748 11.735C10.7748 11.735 10.5927 11.6042 10.598 11.4649C10.6034 11.3256 10.7763 11.134 10.7763 11.134L10.8804 11.1517C10.8804 11.1517 10.7932 11.311 10.8567 11.4172C10.9202 11.5234 11.2722 11.6919 11.2722 11.6919C11.6986 11.3019 12.1563 10.948 12.6406 10.6338C13.451 10.1066 14.8599 9.07084 14.8599 9.07084L15.6229 8.33208L15.6229 8.33207ZM9.84499 4.32812L10.5873 6.62522H13.0653L11.0626 7.96807L11.8187 10.3706L9.84499 8.86383C9.84499 8.86383 7.8277 10.3106 7.78331 10.3706L8.60216 8.03965L6.55197 6.62523H9.01466L9.84499 4.32813L9.84499 4.32812Z" fill="#261256"/>
<defs>
<linearGradient id="paint0_linear" x1="10" y1="0" x2="10" y2="20" gradientUnits="userSpaceOnUse">
<stop stop-color="#F3F3F3"/>
<stop offset="1" stop-color="#C4C4C4"/>
</linearGradient>
</defs>
</svg>
