<svg width="42" height="42" viewBox="0 0 42 42" fill="none" xmlns="http://www.w3.org/2000/svg">
<circle cx="21" cy="21" r="20.5" fill="#2D3947" stroke="#475264"/>
<path d="M31 18.2489C31.0011 18.8119 30.9622 19.3744 30.8835 19.9319C30.7658 20.5421 30.2074 21.3251 30.2074 21.3251C29.6803 21.9254 29.0898 22.4663 28.4465 22.9384L25.6755 25.0101C25.3304 24.7493 24.8554 24.7493 24.5103 25.0101C23.8993 25.4573 24.1404 26.0745 24.2955 26.1846C24.4507 26.2946 24.9536 26.2375 24.9536 26.2375L24.9384 26.5343C24.7268 26.6124 24.4998 26.6386 24.2761 26.6109C24.0212 26.5789 23.8106 26.2724 23.8106 26.2724L23.5127 25.9032C23.0621 26.3689 22.5918 26.8147 22.1033 27.2395C22.9687 27.9843 23.9503 28.9253 24.0467 29.0179L24.0545 29.0253L24.8525 28.9585C24.8648 29.0038 24.8685 29.0511 24.8636 29.0978C24.8511 29.1563 24.326 29.8404 24.326 29.8404C24.3678 29.9975 24.3323 30.1653 24.2304 30.2918C24.1312 30.404 23.9839 30.4607 23.8356 30.4436C23.6531 30.6371 23.4597 30.82 23.2564 30.9912C23.2109 31.0024 23.1634 31.0024 23.1179 30.9912L23.0306 30.2332C23.0306 30.2332 21.6977 29.3743 20.5006 28.5065C19.3025 29.3741 17.9694 30.2332 17.9694 30.2332L17.8821 30.9912C17.8367 31.0029 17.789 31.0029 17.7436 30.9912C17.5398 30.8199 17.346 30.6371 17.163 30.4436C17.0147 30.4604 16.8675 30.4038 16.7682 30.2918C16.667 30.165 16.6315 29.9976 16.6726 29.8404C16.6726 29.8404 16.1475 29.1563 16.135 29.0978C16.1309 29.051 16.1352 29.0038 16.1475 28.9585L16.9455 29.0253L16.9532 29.0179C17.0496 28.9252 18.0312 27.9836 18.897 27.2383C18.4084 26.8143 17.9386 26.3687 17.4886 25.9032L17.1908 26.2724C17.1908 26.2724 16.9788 26.5789 16.7252 26.6109C16.5016 26.6386 16.2745 26.6124 16.063 26.5343L16.0464 26.2375C16.0464 26.2375 16.5507 26.2946 16.7058 26.1846C16.861 26.0745 17.1021 25.4573 16.4897 25.0101C16.1449 24.75 15.6707 24.75 15.3259 25.0101L12.5549 22.9384C11.9114 22.4661 11.3205 21.9252 10.7926 21.3251C10.7926 21.3251 10.2342 20.5421 10.1178 19.9319C10.0382 19.3745 9.99886 18.812 10 18.2489L11.3814 19.5794C11.3814 19.5794 13.9321 21.4546 15.3993 22.409C16.2767 22.9776 17.1058 23.6184 17.878 24.3247C17.878 24.3247 18.5111 24.0251 18.6261 23.8329C18.7411 23.6406 18.5846 23.3522 18.5846 23.3522L18.7716 23.3202C18.7716 23.3202 19.0833 23.6671 19.0944 23.9192C19.1055 24.1714 18.7758 24.4083 18.7758 24.4083L18.4349 24.7496C18.4349 24.7496 19.5392 25.4022 20.4994 26.0353C21.46 25.4022 22.5651 24.7496 22.5651 24.7496L22.2228 24.4096C22.2228 24.4096 21.8931 24.1728 21.9028 23.9206C21.9125 23.6685 22.2256 23.3215 22.2256 23.3215L22.414 23.3536C22.414 23.3536 22.2561 23.642 22.3711 23.8342C22.4861 24.0265 23.1234 24.3316 23.1234 24.3316C23.8953 23.6256 24.7239 22.9848 25.6007 22.416C27.0679 21.4616 29.6186 19.5864 29.6186 19.5864L31 18.2489L31 18.2489ZM20.5395 11L21.8834 15.1587H26.3696L22.7438 17.5899L24.1127 21.9395L20.5395 19.2116C20.5395 19.2116 16.8873 21.8308 16.807 21.9395L18.2894 17.7195L14.5777 15.1587H19.0362L20.5395 11L20.5395 11Z" fill="#777D9A"/>
</svg>
