<svg width="14" height="14" viewBox="0 0 14 14" fill="none" xmlns="http://www.w3.org/2000/svg">
<path d="M13.9194 4.9985C13.9201 5.37172 13.8943 5.74451 13.8422 6.11403C13.7641 6.5185 13.394 7.03748 13.394 7.03748C13.0446 7.43537 12.6532 7.79393 12.2268 8.10684L10.3901 9.48002C10.1614 9.30718 9.84657 9.30718 9.61782 9.48002C9.21283 9.77645 9.37262 10.1855 9.47548 10.2585C9.57833 10.3314 9.91169 10.2936 9.91169 10.2936L9.90159 10.4903C9.76135 10.542 9.61088 10.5594 9.46262 10.5411C9.29365 10.5198 9.15406 10.3167 9.15406 10.3167L8.95662 10.072C8.65792 10.3807 8.34621 10.6762 8.0224 10.9577C8.59599 11.4514 9.24667 12.0751 9.31056 12.1365L9.31568 12.1414L9.84465 12.0971C9.85279 12.1271 9.85528 12.1585 9.85199 12.1894C9.84373 12.2282 9.49568 12.6816 9.49568 12.6816C9.52337 12.7858 9.49982 12.897 9.43231 12.9808C9.36657 13.0552 9.26892 13.0928 9.17058 13.0815C9.04965 13.2098 8.92148 13.3309 8.78672 13.4444C8.75656 13.4519 8.72505 13.4519 8.69489 13.4444L8.63703 12.9421C8.63703 12.9421 7.75358 12.3727 6.96006 11.7975C6.16595 12.3726 5.28234 12.9421 5.28234 12.9421L5.22448 13.4444C5.19437 13.4522 5.16277 13.4522 5.13265 13.4444C4.9976 13.3309 4.86913 13.2098 4.74787 13.0815C4.64955 13.0926 4.55197 13.0551 4.48614 12.9808C4.41905 12.8968 4.39554 12.7858 4.42277 12.6816C4.42277 12.6816 4.07472 12.2282 4.06646 12.1894C4.06376 12.1584 4.06655 12.1271 4.07472 12.0971L4.60369 12.1414L4.6088 12.1365C4.67268 12.0751 5.32331 11.4509 5.89715 10.9569C5.5733 10.6759 5.26194 10.3805 4.96368 10.072L4.76624 10.3167C4.76624 10.3167 4.62573 10.5198 4.45767 10.5411C4.30942 10.5594 4.15894 10.542 4.01871 10.4903L4.00769 10.2936C4.00769 10.2936 4.34196 10.3314 4.44482 10.2585C4.54767 10.1855 4.70746 9.77645 4.30156 9.48002C4.07299 9.30764 3.75872 9.30764 3.53015 9.48002L1.69347 8.10684C1.2669 7.79377 0.87525 7.43523 0.525342 7.03748C0.525342 7.03748 0.155251 6.5185 0.0781109 6.11403C0.0253334 5.74457 -0.000754592 5.37175 1.6608e-05 4.9985L0.915636 5.8804C0.915636 5.8804 2.6063 7.12337 3.57882 7.75594C4.16037 8.13285 4.70989 8.55755 5.22173 9.02568C5.22173 9.02568 5.64141 8.82714 5.71763 8.69971C5.79385 8.57227 5.69008 8.38111 5.69008 8.38111L5.81405 8.35987C5.81405 8.35987 6.02068 8.58981 6.02803 8.75696C6.03537 8.9241 5.81681 9.08109 5.81681 9.08109L5.5909 9.30734C5.5909 9.30734 6.32288 9.73989 6.95931 10.1596C7.59598 9.73989 8.32847 9.30734 8.32847 9.30734L8.10164 9.08202C8.10164 9.08202 7.88307 8.92503 7.8895 8.75788C7.89593 8.59074 8.10348 8.3608 8.10348 8.3608L8.22837 8.38204C8.22837 8.38204 8.12368 8.57319 8.1999 8.70063C8.27612 8.82807 8.69856 9.0303 8.69856 9.0303C9.21018 8.5623 9.75938 8.13761 10.3405 7.76055C11.3131 7.12799 13.0037 5.88501 13.0037 5.88501L13.9194 4.9985L13.9194 4.9985ZM6.98586 0.193756L7.87665 2.95027H10.8502L8.44694 4.5617L9.35426 7.44473L6.98586 5.63661C6.98586 5.63661 4.56512 7.37271 4.51185 7.44473L5.49447 4.64759L3.03424 2.95028H5.98946L6.98586 0.193766L6.98586 0.193756Z" fill="white"/>
</svg>
