<svg xmlns="http://www.w3.org/2000/svg" viewBox="0 0 512 502.93"><defs><style>.cls-1{isolation:isolate;}.cls-2{fill:#f6c863;}.cls-3{fill:#eab54e;}.cls-4,.cls-5{fill:#9c97ff;}.cls-5{mix-blend-mode:multiply;opacity:0.4;}.cls-6{fill:#eab52f;}</style></defs><g class="cls-1"><g id="Capa_1" data-name="Capa 1"><path class="cls-2" d="M258.65,80.86S299.91-4.62,398.46,5.34a15.67,15.67,0,0,1,11,6.4,78.93,78.93,0,0,1,15.75,50.18c-1.86,32.93-123.47,58.3-123.47,58.3l-25.77-5.12Z" transform="translate(0 -4.53)"/><path class="cls-3" d="M361.46,94a225.82,225.82,0,0,1-78.64,14.29A216.91,216.91,0,0,1,412.59,52.85c5.69-.47,7.81,6,3.9,10.19-8.81,9.33-31.21,21.86-55,30.95Z" transform="translate(0 -4.53)"/><path class="cls-2" d="M258.63,80.86S217.37-4.62,118.82,5.34a15.67,15.67,0,0,0-11,6.4A78.93,78.93,0,0,0,92.1,61.92c1.86,32.93,123.46,58.3,123.46,58.3l25.78-5.12Z" transform="translate(0 -4.53)"/><path class="cls-3" d="M155.81,94a225.92,225.92,0,0,0,78.65,14.29,226.27,226.27,0,0,0-68.15-41.75,228.2,228.2,0,0,0-61.63-13.68c-5.68-.47-7.8,6-3.89,10.19C109.57,72.37,132,84.9,155.81,94Z" transform="translate(0 -4.53)"/><circle class="cls-3" cx="256.02" cy="104.86" r="30.93"/><path class="cls-4" d="M6.34,109.39H505.66a6.34,6.34,0,0,1,6.34,6.34V198.2a6.34,6.34,0,0,1-6.34,6.34H6.34A6.34,6.34,0,0,1,0,198.2V115.73A6.34,6.34,0,0,1,6.34,109.39Z" transform="translate(0 -4.53)"/><path class="cls-4" d="M486.77,187.09v314a6.36,6.36,0,0,1-6.34,6.35H31.6a6.36,6.36,0,0,1-6.34-6.35v-314Z" transform="translate(0 -4.53)"/><path class="cls-5" d="M25.26,204.54H486.78v22.2H25.26Z" transform="translate(0 -4.53)"/><path class="cls-2" d="M218.89,109.39h74.25V507.46H218.89Z" transform="translate(0 -4.53)"/><path class="cls-6" d="M218.87,204.54h74.29v22.2H218.87Z" transform="translate(0 -4.53)"/></g></g></svg>