<svg xmlns="http://www.w3.org/2000/svg" xmlns:xlink="http://www.w3.org/1999/xlink" viewBox="0 0 2000 2000">
<defs>
  <style>
  .cls-1 {
    fill:#1b1b21;
    }
  .cls-2 {
    fill:#eee;
    }
  .cls-3 {
    fill:#121219;
    }
  .cls-4 {
    fill:#efefef;
    }
  .cls-5 {
    fill:none;
    stroke:#fbb03b;
    stroke-miterlimit:10;
    stroke-width:15px;
    stroke-dasharray:50.23 50.23;
    }
    </style>
</defs>
<g class="background">
  <path style="fill: black !important;" class="cls-1" d="M1000,1001l-989.53-146A994.55,994.55,0,0,1,197.18,403.7L1000,1001c55.09-81.24-81.24,55.09,0,0L403.7,197.18A994.53,994.53,0,0,1,854,10.6L1000,1001"/>
  <path style="fill: black !important;" class="cls-1" d="M1000,1001,854,1989.41a994.52,994.52,0,0,1-450.27-186.58L1000,1001c-81.24-55.09,55.09,81.24,0,0L197.18,1596.29A994.51,994.51,0,0,1,10.74,1147L1000,1001"/>
  <path style="fill: black !important;" class="cls-1" d="M1000,1001l989.26,146a994.51,994.51,0,0,1-186.44,449.29L1000,1000c-55.09,81.23,81.24-54.13,0,1l596.31,801.87A994.52,994.52,0,0,1,1146,1989.41L1000,1001"/>
  <path style="fill: black !important;" class="cls-1" d="M1000,1000,1146,10.6A994.53,994.53,0,0,1,1596.3,197.18L1000,1000c81.24,55.08-55.09-81.24,0,0l802.82-596.3a994.55,994.55,0,0,1,186.71,451.23L1000,1000"/>
</g>
<g data-name="Layer 2">
  <path class="cls-2" d="M1000,1001,854,9.7A1105.34,1105.34,0,0,1,1146,9.7L1000,1001"/>
  <path class="cls-2" d="M1000,1001l146,988.45a1011.32,1011.32,0,0,1-292.08,0L1000,1001"/>
  <path class="cls-2" d="M1000,1000l989.53-145.07a1010.82,1010.82,0,0,1-.27,292.07L1000,1000"/>
  <path class="cls-2" d="M1000,1001,10.74,1147a1010.82,1010.82,0,0,1-.27-292.07L1000,1001"/>
  <path class="cls-2" d="M1802.82,403.7,1000,1000c-55.09-81.24,81.24,55.08,0,0l596.3-802.82A1005.12,1005.12,0,0,1,1802.82,403.7Z"/>
  <path class="cls-2" d="M1000,1000,403.69,1802.83a1004.92,1004.92,0,0,1-206.51-206.54L1000,1001C1055.09,1082.2,918.76,944.91,1000,1000Z"/>
  <path class="cls-2" d="M1000,1000h0L197.18,403.7A1005.12,1005.12,0,0,1,403.7,197.18Z"/>
  <path class="cls-2" d="M1802.82,1596.29a1004.92,1004.92,0,0,1-206.51,206.54L1000,1001c81.24-55.09-49.41,77.47,5.68-3.77Z"/>
</g>
<g>
  <path class="cls-3" d="M1829.58,1000A826.39,826.39,0,1,1,1815,844.06,832.6,832.6,0,0,1,1829.58,1000Z"/>
  <path class="cls-4" d="M1633.44,1000A635.56,635.56,0,0,1,1622,1120.44a628.81,628.81,0,0,1-97.18,234,635.44,635.44,0,0,1-169.2,169.2A628.85,628.85,0,0,1,1120.78,1621a639.11,639.11,0,0,1-239.3,0,628.85,628.85,0,0,1-234.83-97.34,635.44,635.44,0,0,1-169.2-169.2A629.89,629.89,0,0,1,368.81,1000,635.72,635.72,0,0,1,380,881.14a628.73,628.73,0,0,1,97.48-235.62,635.44,635.44,0,0,1,169.2-169.2A628.85,628.85,0,0,1,881.48,379a639.11,639.11,0,0,1,239.3,0,628.85,628.85,0,0,1,234.83,97.34,635.44,635.44,0,0,1,169.2,169.2,628.89,628.89,0,0,1,97.48,235.62A635.72,635.72,0,0,1,1633.44,1000Z"/>
  <circle class="cls-5" cx="1000" cy="1000" r="687.42"/>
</g>
</svg>
