<svg xmlns="http://www.w3.org/2000/svg" xmlns:xlink="http://www.w3.org/1999/xlink" viewBox="0 0 2000 2000">
<path d="M148 203l2 23c0 4 2 8 5 10 4 2 8 3 12 2l12-4-31-31zm364-50c0-5-5-9-10-9l-15 1-1-8c0-6-4-10-9-10h-1c-5 1-10 5-9 11v8l-79 5-20-35c-2-3-6-5-9-5l-80 2c-5 0-9 4-10 8l-6 25 22-1 3-11 65-2 11 20-14 1c14 21 5 49-17 59l-6 3 10 30c4 12 17 18 28 14 12-4 18-16 14-28l-14-40 38-2a10 10 0 0 0 2-19l98-6c5-1 9-5 9-11zM207 53a49 49 0 1 0-15 97 49 49 0 0 0 15-97z" class="st0"/>
<path d="M336 166c-5-11-18-16-29-11l-81 37-75-42c-11-6-16-20-16-20a37 37 0 0 0-37 38v133c0 7 1 14 3 20 4 15 13 44 23 85H27a27 27 0 0 0 0 54h130a27 27 0 0 0 26-33l-22-96 73-7-17 105a27 27 0 0 0 53 8l22-139c2-8-1-16-7-22s-13-9-22-9l-57 6v-14l-16-15-19 7a26 26 0 0 1-35-24c-2-33-2-31-1-35l79 44c6 4 14 4 20 1l92-42c11-4 15-18 10-29z" class="st0"/>
</svg>
