<?xml version="1.0" standalone="no"?>
<!DOCTYPE svg PUBLIC "-//W3C//DTD SVG 20010904//EN"
 "http://www.w3.org/TR/2001/REC-SVG-20010904/DTD/svg10.dtd">
<svg version="1.0" xmlns="http://www.w3.org/2000/svg"
 width="267.000000pt" height="267.000000pt" viewBox="0 0 267.000000 267.000000"
 preserveAspectRatio="xMidYMid meet">
<metadata>
Created by potrace 1.14, written by Peter Selinger 2001-2017
</metadata>
<g transform="translate(0.000000,267.000000) scale(0.100000,-0.100000)"
fill="#000000" stroke="none">
<path d="M563 1937 c-276 -276 -402 -410 -405 -427 -4 -32 13 -96 34 -118 8
-9 38 -39 67 -66 28 -26 48 -53 44 -59 -3 -6 -1 -7 5 -3 12 7 79 -61 74 -76
-1 -5 2 -7 7 -4 13 8 52 -34 44 -47 -3 -6 -1 -7 4 -4 6 4 33 -16 60 -44 26
-29 60 -63 75 -77 15 -14 25 -29 22 -34 -3 -5 -1 -7 4 -6 16 4 113 -93 105
-105 -3 -5 -2 -7 4 -4 14 9 55 -32 47 -45 -4 -6 -3 -8 3 -5 5 4 32 -16 59 -44
27 -28 61 -62 76 -76 15 -14 25 -30 22 -35 -3 -5 -1 -7 4 -6 15 5 83 -62 76
-74 -4 -6 -3 -8 3 -5 6 4 55 -39 109 -94 54 -55 110 -106 124 -114 34 -18 88
-26 96 -14 3 6 12 5 20 -2 12 -10 15 -10 12 2 -2 8 4 13 14 13 10 -1 16 2 15
7 -3 12 225 239 235 233 5 -3 7 -1 6 4 -4 12 184 202 194 196 5 -3 7 -1 6 3
-4 13 104 123 114 117 5 -3 7 -1 6 3 -4 14 154 173 165 166 6 -3 7 -2 4 3 -3
5 62 77 145 159 83 82 156 163 163 180 13 34 11 74 -5 105 -18 34 -789 800
-795 791 -2 -5 -12 -42 -20 -82 -8 -41 -30 -125 -47 -188 -22 -81 -28 -116
-20 -119 7 -2 12 -9 12 -16 0 -7 9 -21 20 -31 10 -9 18 -20 17 -24 -1 -3 7
-18 17 -33 10 -15 15 -32 11 -38 -4 -6 -2 -9 3 -8 6 2 9 0 9 -4 -1 -4 7 -14
18 -22 11 -9 16 -16 10 -16 -6 0 -5 -3 1 -8 12 -8 94 -140 94 -151 0 -5 8 -15
18 -24 10 -9 24 -32 32 -52 8 -19 17 -35 22 -35 13 0 9 -48 -5 -57 -7 -4 -28
-28 -47 -53 -19 -25 -37 -47 -40 -50 -3 -3 -25 -30 -50 -60 -25 -30 -49 -60
-55 -66 -5 -6 -23 -28 -40 -48 -16 -21 -40 -50 -52 -65 l-23 -26 0 87 c0 66
-5 95 -20 125 -10 21 -49 101 -85 178 -37 77 -76 159 -88 182 l-22 42 -25 -52
c-13 -29 -28 -54 -31 -57 -3 -3 -10 -16 -14 -29 -4 -14 -38 -89 -76 -167 -38
-78 -69 -155 -69 -171 0 -15 0 -35 -1 -43 -1 -8 0 -19 1 -25 1 -5 2 -23 1 -39
-1 -24 -3 -27 -16 -16 -8 7 -15 17 -15 23 0 5 -6 15 -14 21 -7 6 -55 63 -107
126 -51 63 -98 121 -104 128 -5 7 -22 26 -38 44 -31 34 -30 50 9 110 13 21 24
41 23 44 0 4 3 10 8 13 5 3 40 57 77 119 40 65 72 109 78 105 6 -3 8 -1 4 5
-6 10 26 79 43 92 31 24 37 102 11 149 -5 10 -11 29 -14 42 -2 13 -11 51 -19
84 -8 33 -18 78 -22 100 -3 22 -9 46 -13 53 -5 7 -146 -127 -409 -391z m674
-798 l0 -271 -26 29 c-73 78 -77 89 -75 208 1 91 5 119 24 160 13 28 28 53 34
57 6 4 8 8 4 8 -7 0 30 80 36 80 1 0 3 -122 3 -271z m164 69 c19 -37 22 -59
21 -150 -1 -82 -5 -113 -18 -133 -9 -14 -19 -23 -22 -20 -5 5 -10 345 -5 345
2 0 12 -19 24 -42z"/>
<path d="M1282 2241 c-6 -3 -15 -19 -21 -34 -10 -25 -8 -29 15 -37 14 -6 32
-10 39 -10 16 0 30 42 22 64 -6 16 -40 26 -55 17z"/>
<path d="M1433 2119 c-14 -14 -6 -39 12 -39 18 0 26 27 11 39 -9 7 -16 7 -23
0z"/>
<path d="M1141 2086 c-8 -9 -9 -21 -4 -31 8 -13 11 -13 28 -1 18 14 19 16 4
31 -14 14 -17 14 -28 1z"/>
<path d="M1355 1999 c-10 -15 3 -25 16 -12 7 7 7 13 1 17 -6 3 -14 1 -17 -5z"/>
<path d="M1195 1957 c-12 -9 -14 -16 -7 -21 6 -4 9 -13 5 -21 -4 -11 2 -15 20
-15 34 0 52 23 37 49 -12 24 -29 26 -55 8z"/>
<path d="M1370 1855 c-6 -8 -5 -18 5 -31 12 -17 15 -18 30 -3 18 18 12 46 -11
46 -8 0 -19 -6 -24 -12z"/>
<path d="M1153 1798 c2 -7 10 -13 17 -13 7 0 15 6 18 13 2 7 -5 12 -18 12 -13
0 -20 -5 -17 -12z"/>
<path d="M1030 1690 c0 -5 5 -10 10 -10 6 0 10 5 10 10 0 6 -4 10 -10 10 -5 0
-10 -4 -10 -10z"/>
<path d="M1400 1665 c0 -8 7 -15 15 -15 8 0 15 7 15 15 0 8 -7 15 -15 15 -8 0
-15 -7 -15 -15z"/>
<path d="M1570 1670 c0 -5 5 -10 10 -10 6 0 10 5 10 10 0 6 -4 10 -10 10 -5 0
-10 -4 -10 -10z"/>
<path d="M1178 1642 c-20 -4 -24 -27 -7 -38 14 -8 40 18 31 31 -4 6 -15 9 -24
7z"/>
<path d="M1040 1514 c0 -8 5 -12 10 -9 6 4 8 11 5 16 -9 14 -15 11 -15 -7z"/>
<path d="M1535 1471 c-3 -5 -1 -12 5 -16 5 -3 10 1 10 9 0 18 -6 21 -15 7z"/>
</g>
</svg>
