<svg width="46" height="46" viewBox="15 13 16 16" fill="none" xmlns="http://www.w3.org/2000/svg">
<g filter="url(#filter0_d)">
<path d="M23.0021 13C21.0198 13 19.2044 13.7234 17.8044 14.9176C18.1597 15.2472 18.4937 15.5982 18.802 15.9749C18.8191 15.9963 18.8405 16.0219 18.8576 16.0433C19.9794 15.1059 21.4265 14.5409 23.0021 14.5409C24.582 14.5409 26.0249 15.1059 27.1466 16.0433C27.1638 16.0219 27.1852 15.9963 27.2023 15.9749C27.5063 15.5982 27.8402 15.2429 28.1956 14.9133C26.7998 13.7234 24.9845 13 23.0021 13ZM29.2574 16.0134C28.8935 16.3472 28.5638 16.7068 28.2598 17.0963C28.2427 17.122 28.2213 17.1434 28.2042 17.1691C28.9962 18.2392 29.4629 19.5661 29.4629 21C29.4629 22.9818 28.5724 24.7496 27.168 25.9353C27.1809 25.9652 27.1937 25.9909 27.2066 26.0166C27.4121 26.466 27.6518 26.8941 27.9259 27.3007C29.7969 25.8368 31 23.5554 31 20.9957C31.0043 19.1124 30.3492 17.3788 29.2574 16.0134ZM16.5371 21C16.5371 19.5661 17.0037 18.2392 17.7958 17.1691C17.7787 17.1434 17.7573 17.122 17.7402 17.0963C17.4362 16.7068 17.1022 16.3472 16.7426 16.0177C15.6508 17.3831 15 19.1166 15 21.0043C15 23.5725 16.2074 25.8539 18.087 27.3178C18.361 26.9112 18.6007 26.4831 18.8063 26.0337C18.8191 26.008 18.8319 25.9781 18.8448 25.9524C17.4319 24.7624 16.5371 22.9861 16.5371 21ZM25.9178 26.8641C25.905 26.8384 25.8921 26.8127 25.8793 26.7871C25.0144 27.2194 24.034 27.4634 23.0021 27.4634C21.9746 27.4634 21.0027 27.2236 20.1378 26.7956C20.125 26.8213 20.1121 26.847 20.0993 26.8727C19.8895 27.3135 19.6454 27.733 19.38 28.1354C20.4675 28.6875 21.7006 29 23.0064 29C24.3166 29 25.5539 28.6833 26.6457 28.1268C26.3717 27.7245 26.1276 27.305 25.9178 26.8641Z" fill="url(#paint0_linear)"/>
<path d="M18.2796 17.8668C19.1017 19.198 19.5769 20.7646 19.5769 22.4425C19.5769 23.3885 19.4271 24.3002 19.1488 25.152C18.0356 24.1161 17.3377 22.6394 17.3377 21C17.3334 19.84 17.6802 18.7657 18.2796 17.8668Z" fill="url(#paint1_linear)"/>
<path d="M25.5711 26.0508C24.8004 26.4446 23.927 26.6629 23.0022 26.6629C22.0816 26.6629 21.2168 26.4446 20.4461 26.0551C20.5446 25.7897 20.6345 25.5201 20.7116 25.2461L22.9979 22.9604L23.3532 22.6051L23.152 23.1145L25.2971 25.2376C25.3784 25.5158 25.4683 25.7854 25.5711 26.0508Z" fill="url(#paint2_linear)"/>
<path d="M24.9119 22.0901C24.9119 22.4154 24.929 22.4753 24.9547 22.7921L22.998 21.1755L21.0585 22.775C21.0885 22.4668 21.1013 22.4154 21.1013 22.0987C21.1013 20.1485 20.4463 18.3205 19.3288 16.6811C20.3178 15.8379 21.598 15.3328 22.998 15.3328C24.3981 15.3328 25.6825 15.8422 26.6716 16.6854C25.5627 18.3248 24.9119 20.3405 24.9119 22.0901Z" fill="url(#paint3_linear)"/>
<path d="M28.6666 21C28.6666 22.6351 27.973 24.1075 26.8641 25.1434C26.5858 24.2916 26.4359 23.3799 26.4359 22.4339C26.4359 20.7603 26.9069 19.198 27.7246 17.8711C28.3198 18.7656 28.6666 19.8443 28.6666 21Z" fill="url(#paint4_linear)"/>
</g>
<defs>
<filter id="filter0_d" x="0" y="0" width="46" height="46" filterUnits="userSpaceOnUse" color-interpolation-filters="sRGB">
<feFlood flood-opacity="0" result="BackgroundImageFix"/>
<feColorMatrix in="SourceAlpha" type="matrix" values="0 0 0 0 0 0 0 0 0 0 0 0 0 0 0 0 0 0 127 0" result="hardAlpha"/>
<feOffset dy="2"/>
<feGaussianBlur stdDeviation="7.5"/>
<feColorMatrix type="matrix" values="0 0 0 0 0.92549 0 0 0 0 0.803922 0 0 0 0 0.380392 0 0 0 0.2 0"/>
<feBlend mode="normal" in2="BackgroundImageFix" result="effect1_dropShadow"/>
<feBlend mode="normal" in="SourceGraphic" in2="effect1_dropShadow" result="shape"/>
</filter>
<linearGradient id="paint0_linear" x1="23" y1="13" x2="23" y2="29" gradientUnits="userSpaceOnUse">
<stop stop-color="#ECCD62"/>
<stop offset="1" stop-color="#DEB422"/>
</linearGradient>
<linearGradient id="paint1_linear" x1="18.4573" y1="17.8668" x2="18.4573" y2="25.152" gradientUnits="userSpaceOnUse">
<stop stop-color="#ECCD62"/>
<stop offset="1" stop-color="#DEB422"/>
</linearGradient>
<linearGradient id="paint2_linear" x1="23.0086" y1="22.6051" x2="23.0086" y2="26.6629" gradientUnits="userSpaceOnUse">
<stop stop-color="#ECCD62"/>
<stop offset="1" stop-color="#DEB422"/>
</linearGradient>
<linearGradient id="paint3_linear" x1="23.0002" y1="15.3328" x2="23.0002" y2="22.7921" gradientUnits="userSpaceOnUse">
<stop stop-color="#ECCD62"/>
<stop offset="1" stop-color="#DEB422"/>
</linearGradient>
<linearGradient id="paint4_linear" x1="27.5512" y1="17.8711" x2="27.5512" y2="25.1434" gradientUnits="userSpaceOnUse">
<stop stop-color="#ECCD62"/>
<stop offset="1" stop-color="#DEB422"/>
</linearGradient>
</defs>
</svg>
