<svg class="img-fluid" id="outputsvg" xmlns="http://www.w3.org/2000/svg" style="transform: none; transform-origin: 50% 50%; cursor: move; max-height: none;" width="1276" height="362" viewBox="0 0 12760 3620"><g id="l2Ri0uQwrDbnAWaqc4etu7V" fill="rgb(78,75,128)" style="transform: none;"><g><path id="p3BYnahGr" d="M0 2585 l0 -865 345 -230 345 -230 0 30 0 30 -15 0 -15 0 0 10 0 10 -15 0 -15 0 0 10 0 10 -15 0 -15 0 0 10 0 10 -15 0 -15 0 0 10 0 10 -15 0 -15 0 0 10 0 10 -15 0 -15 0 0 10 0 10 -15 0 -15 0 0 10 0 10 -15 0 -15 0 0 10 0 10 -15 0 -15 0 0 10 0 10 -15 0 -15 0 0 10 0 10 -15 0 -15 0 0 10 0 10 -15 0 -15 0 0 10 0 10 -15 0 -15 0 0 10 0 10 -15 0 -15 0 0 10 0 10 -15 0 -15 0 0 10 0 10 -15 0 -15 0 0 10 0 10 -15 0 -15 0 0 10 0 10 -15 0 -15 0 0 10 0 10 -15 0 -15 0 0 10 0 10 -15 0 -15 0 0 10 0 10 -14 0 -14 0 -6 16 -6 16 0 829 0 829 880 0 880 0 0 20 0 20 -905 0 -905 0 0 -865z"></path><path id="pwrG03rfm" d="M3610 3419 l0 -31 20 -5 20 -5 0 -19 0 -19 15 0 15 0 0 -20 0 -20 25 0 25 0 0 -35 0 -36 15 -5 15 -6 0 -14 0 -14 25 0 25 0 0 -35 0 -35 9 0 9 0 5 -20 5 -20 32 0 32 0 -38 53 c-21 28 -82 112 -136 185 l-98 132 -10 0 -10 0 0 -31z"></path><path id="p3t5yG9C5" d="M9565 3178 c-33 -45 -82 -114 -110 -153 -27 -40 -60 -86 -73 -104 l-23 -31 30 0 31 0 0 35 0 35 25 0 25 0 0 20 0 20 15 0 15 0 0 15 0 15 10 0 10 0 0 14 0 14 15 6 15 5 0 16 0 15 10 0 10 0 0 35 0 35 25 0 25 0 0 25 0 25 20 0 20 0 0 20 0 20 -17 0 -18 0 -60 -82z"></path><path id="pAgzNkB9G" d="M3900 3030 l0 -30 25 0 25 0 0 8 c0 11 -35 52 -44 52 l-6 0 0 -30z"></path><path id="pv555myCH" d="M3970 2925 l0 -35 40 0 40 0 0 35 0 35 -15 0 -15 0 0 -15 0 -15 -9 0 c-5 0 -11 7 -15 15 -3 8 -10 15 -16 15 l-10 0 0 -35z"></path><path id="pkxPxxEbc" d="M9290 2845 l0 -35 40 0 40 0 0 35 0 35 -10 0 c-6 0 -13 -7 -16 -15 -4 -8 -10 -15 -15 -15 l-9 0 0 15 0 15 -15 0 -15 0 0 -35z"></path><path id="pSDWS6SJu" d="M12660 1879 c-30 -22 -62 -45 -70 -52 -8 -6 -28 -18 -43 -26 -15 -8 -27 -18 -27 -23 l0 -8 -13 0 c-7 0 -22 -8 -33 -17 -10 -10 -31 -24 -46 -32 -16 -8 -28 -18 -28 -23 l0 -8 -15 0 -15 0 0 -10 0 -10 -15 0 -15 0 0 -10 0 -10 -15 0 -16 0 -5 -15 -6 -15 -14 0 -14 0 0 -10 0 -10 -15 0 -15 0 0 -10 0 -10 -15 0 -15 0 0 -10 0 -10 -15 0 -15 0 0 -10 0 -10 -15 0 -15 0 0 -10 0 -10 -15 0 -15 0 0 -10 0 -10 -15 0 -15 0 0 -10 0 -10 -15 0 -15 0 0 -10 0 -10 -1370 0 -1370 0 0 -20 0 -20 1370 0 1369 0 350 233 350 232 0 18 1 17 -22 -1 -23 -1 -55 -39z"></path><path id="p15bVxwHRm" d="M800 1196 l0 -14 20 -5 20 -5 20 5 20 5 0 14 0 14 -40 0 -40 0 0 -14z"></path><path id="pw6g9jND3" d="M4075 620 l70 -71 3 32 3 32 -37 38 -38 39 -35 0 -35 0 69 -70z"></path><path id="pTqaVwx59" d="M9151 616 l-62 -63 3 -32 3 -32 95 96 95 95 -35 0 -36 0 -63 -64z"></path><path id="p6RFWxSf4" d="M4251 443 c8 -9 105 -109 217 -221 111 -113 202 -209 202 -213 l0 -9 1980 0 1980 0 0 8 c0 4 61 71 136 147 l137 140 -26 3 -25 3 -128 -125 -128 -126 -1947 0 -1946 0 -207 205 -207 205 -26 0 -25 0 13 -17z"></path></g></g><g id="l50CWsh1se4T3tcHhwJPuHd" fill="rgb(110,107,180)" style="transform: none;"><g><path id="pryfkC746" d="M1768 3443 l-18 -4 0 -15 0 -14 923 0 924 0 5 -860 6 -860 83 -92 c45 -51 130 -141 188 -200 l106 -108 32 0 33 0 0 814 0 814 -6 16 c-3 9 -10 16 -15 16 l-9 0 0 -15 0 -15 -9 0 c-5 0 -11 8 -14 18 -3 9 -41 67 -86 127 -44 61 -98 134 -118 163 -21 29 -64 86 -96 127 l-58 76 -9 -6 -10 -6 0 15 0 16 -917 -1 c-505 -1 -926 -3 -935 -6z"></path><path id="p17NMI58Y5" d="M17 3420 l5 -20 14 0 14 0 0 20 0 20 -19 0 -19 0 5 -20z"></path><path id="p1A3gcHPSH" d="M9607 3232 c-34 -40 -267 -373 -267 -382 l0 -10 -10 0 -10 0 0 15 0 15 -15 0 -15 0 0 -660 0 -660 39 0 39 0 124 131 c67 71 127 139 132 150 5 10 13 19 18 19 l8 0 0 694 0 694 -14 5 -14 6 -15 -17z"></path><path id="p1GUoSRYEC" d="M12710 2555 l0 -696 25 18 24 18 1 678 0 677 -25 0 -25 0 0 -695z"></path><path id="phMbW41kU" d="M12250 1590 l0 -20 -30 0 -30 0 0 -20 0 -20 -30 0 -30 0 0 -20 0 -20 -30 0 -30 0 0 -30 0 -30 125 82 c68 46 125 86 125 91 l0 7 -35 0 -35 0 0 -20z"></path><path id="pL0iGNhiB" d="M9300 1430 l0 -30 10 0 c6 0 10 4 10 9 l0 9 30 7 30 7 0 14 0 14 -40 0 -40 0 0 -30z"></path><path id="pvDXtFIf" d="M655 1290 c4 -6 40 -33 81 -60 l74 -51 0 31 0 30 -15 0 -15 0 0 10 0 10 -15 0 -15 0 0 10 0 10 -15 0 -15 0 0 10 0 10 -36 0 -35 0 6 -10z"></path><path id="p1HqzuZScZ" d="M9280 725 l0 -15 -19 0 -19 0 -11 -14 -12 -15 3 -26 3 -25 47 37 47 38 1 18 0 17 -20 0 -20 0 0 -15z"></path><path id="p1DOuVsNGL" d="M4016 708 l-6 -23 28 -22 27 -23 3 22 4 21 -13 23 -12 24 -13 0 -12 0 -6 -22z"></path><path id="pETFBHPyE" d="M4118 583 c11 -16 29 -37 41 -47 l21 -19 0 34 0 35 -12 12 -12 12 -29 0 -28 0 19 -27z"></path><path id="pzO0QgU8n" d="M9077 543 c-4 -3 -7 -22 -7 -41 l0 -34 15 12 c9 7 25 26 36 42 l20 28 -29 0 c-16 0 -32 -3 -35 -7z"></path></g></g><g id="l3HpsGOgNBK8SEdgVcunxKH" fill="rgb(144,140,236)" style="transform: none;"><g><path id="pPvKotCPL" d="M3573 3443 l-23 -4 0 -25 0 -24 15 0 15 0 0 -675 0 -675 28 0 27 0 -3 675 -3 675 16 0 c19 0 19 5 -1 35 l-16 25 -17 -1 c-9 -1 -26 -4 -38 -6z"></path><path id="pBPB9SuBn" d="M9615 3240 l-19 -21 11 -7 12 -8 0 -658 0 -658 -14 -15 c-8 -8 -15 -19 -15 -24 l0 -9 21 0 20 0 15 14 14 15 -2 692 -3 692 -11 4 -10 3 -19 -20z"></path><path id="pzgLzjJYt" d="M12692 3228 l3 -33 23 -3 22 -3 0 15 0 16 10 0 10 0 0 20 0 20 -36 0 -35 0 3 -32z"></path><path id="p1pwt86GR" d="M4017 2930 l-5 -20 5 -20 5 -20 14 0 14 0 0 40 0 40 -14 0 -14 0 -5 -20z"></path><path id="pFth7CXm4" d="M6330 2490 l0 -40 45 0 45 0 0 40 0 40 -45 0 -45 0 0 -40z"></path><path id="pcpuGwxbg" d="M12560 1790 l0 -30 35 22 c19 13 35 26 35 31 l0 7 -35 0 -35 0 0 -30z"></path><path id="puoitB6w2" d="M40 1703 c0 -5 144 -104 320 -221 l320 -212 0 30 0 30 -15 0 -15 0 0 10 0 10 -15 0 -15 0 0 10 0 10 -15 0 -15 0 0 10 0 10 -15 0 -15 0 0 10 0 10 -15 0 -15 0 0 10 0 10 -15 0 -15 0 0 10 0 10 -15 0 -15 0 0 10 0 10 -15 0 -15 0 0 10 0 10 -15 0 -15 0 0 10 0 10 -15 0 -15 0 0 10 0 10 -15 0 -15 0 0 10 0 10 -15 0 -15 0 0 10 0 10 -15 0 -15 0 0 10 0 10 -15 0 -15 0 0 10 0 10 -15 0 -15 0 0 10 0 10 -15 0 -15 0 0 10 0 10 -15 0 -15 0 0 10 0 10 -15 0 -15 0 0 10 0 10 -15 0 -15 0 0 10 0 10 -35 0 -35 0 0 -7z"></path><path id="psfySnBXP" d="M9283 1603 l-13 -5 0 -34 0 -34 45 0 45 0 0 37 0 37 -12 -12 c-7 -7 -16 -12 -20 -12 l-8 0 0 15 0 15 -12 -1 c-7 0 -19 -3 -25 -6z"></path><path id="p1GBzOKBo4" d="M12040 1450 l0 -20 18 0 19 0 18 20 18 20 -36 0 -37 0 0 -20z"></path><path id="pJ88a5k69" d="M785 1200 l18 -20 19 0 18 0 0 20 0 20 -37 0 -36 0 18 -20z"></path><path id="pJvv0hEM8" d="M3720 1200 l0 -20 140 0 140 0 0 20 0 20 -140 0 -140 0 0 -20z"></path><path id="pAk028IQR" d="M4149 553 c10 -16 40 -48 65 -73 l46 -44 0 35 0 35 -38 37 -38 37 -28 0 -27 0 20 -27z"></path><path id="pPDMXvRUU" d="M9060 494 l0 -35 10 6 c5 3 19 19 30 35 l21 30 -30 0 -31 0 0 -36z"></path></g></g><g id="l1zp1mwNkNtpEMCsAs1KzVx" fill="rgb(156,151,255)" style="transform: none;"><g><path id="pi6XgzUNT" d="M4020 2468 l0 -1152 -31 30 -32 29 8 -55 c5 -30 8 -74 7 -98 l-1 -42 24 0 25 0 0 -249 0 -249 13 -11 14 -11 2603 0 2603 0 33 25 34 26 0 355 0 356 20 5 20 5 0 14 0 14 -10 0 -11 0 6 67 6 68 -14 -18 -14 -17 -14 0 -14 0 12 8 13 8 0 624 c0 344 0 804 0 1023 l0 397 -2650 0 -2650 0 0 -1152z m2981 326 l12 -15 -2 -117 -2 -117 -16 -12 -17 -13 -87 0 -87 0 -11 -14 -11 -14 -3 -113 c-1 -63 2 -324 7 -581 l9 -468 -16 -6 -17 -6 -87 35 c-49 19 -167 63 -263 97 l-175 62 -17 16 -18 15 0 112 0 111 13 18 13 18 60 -17 59 -16 45 3 45 3 7 165 7 165 -6 208 -6 208 -11 7 -11 7 -105 5 -105 5 4 125 4 125 9 6 9 6 378 1 379 2 13 -16z m-611 -304 l0 -10 -15 0 -15 0 0 10 0 10 15 0 15 0 0 -10z"></path><path id="pTveTgdaL" d="M20 2575 l0 -865 33 -20 32 -20 546 0 c300 0 1107 3 1792 7 l1247 6 -15 17 -15 17 0 176 0 177 -15 0 -15 0 0 670 0 670 15 0 15 0 0 15 0 15 -27 -11 -28 -10 -3 10 -4 11 -1779 0 -1779 0 0 -865z m2018 303 l3 -68 -236 0 -235 0 0 -41 0 -41 17 -28 16 -28 24 -11 24 -11 38 0 c21 0 76 -7 122 -16 l83 -15 36 -19 37 -19 30 -34 29 -33 24 -58 23 -57 -11 -37 c-6 -20 -24 -56 -39 -80 l-28 -43 -60 -28 c-33 -16 -81 -34 -108 -41 l-47 -13 -61 6 -61 5 -64 32 -63 31 -39 44 -40 45 -5 20 -5 20 7 4 c4 3 38 6 75 7 l67 2 29 -35 30 -36 59 -7 60 -7 31 7 30 7 30 25 30 25 0 59 0 59 -20 20 -19 19 -23 5 c-13 3 -57 7 -98 9 l-75 4 -56 22 -57 22 -44 38 -43 38 -19 52 -19 53 1 96 c0 53 1 98 1 100 1 1 139 1 309 0 l307 -3 3 -67z"></path><path id="pQQKT6wSp" d="M9630 3253 c0 -5 0 -312 0 -684 l1 -675 -21 -19 c-11 -10 -20 -21 -20 -24 l0 -6 1550 1 1550 2 25 16 25 16 0 663 0 663 -12 27 -13 27 -1542 0 -1543 0 0 -7z m1565 -458 l54 -16 32 -22 c18 -12 40 -33 50 -47 l19 -25 10 -54 10 -55 -40 -41 -40 -41 0 -28 0 -28 30 -34 30 -34 6 -24 6 -24 -22 -50 -22 -51 -36 -25 -37 -25 -59 -16 -60 -17 -59 6 -59 6 -46 20 -47 21 -28 27 c-26 25 -57 75 -57 94 l0 8 55 0 54 0 15 -28 15 -28 26 -12 26 -12 70 0 70 0 24 25 25 24 0 39 0 40 -19 23 -19 23 -88 6 -89 5 0 40 0 40 87 5 87 5 28 21 28 21 3 50 3 50 -33 28 -32 27 -85 -4 -85 -5 -36 -41 -36 -42 -57 0 c-31 0 -57 2 -57 4 0 13 35 84 48 100 20 22 82 55 137 72 l40 13 53 0 54 1 53 -15z"></path></g></g><g id="l73AmR83aoRIfpMxODvVLSk" fill="rgb(181,177,255)" style="transform: none;"><g><path id="pvJeX0AHe" d="M10776 2648 c-3 -13 -6 -33 -6 -45 l0 -23 8 0 c4 0 17 3 30 6 l22 6 0 19 0 19 -10 0 -10 0 0 20 0 20 -14 0 -14 0 -6 -22z"></path><path id="pK9p8u5Co" d="M6174 2515 c1 -29 -2 -28 47 -13 l39 11 0 14 0 13 -44 0 -44 0 2 -25z"></path><path id="pAp7zuIBY" d="M9630 1871 l-25 -6 -125 -133 c-69 -73 -135 -147 -147 -164 l-23 -31 0 -53 0 -54 1379 0 1379 0 248 167 c137 92 279 187 317 211 37 25 67 48 67 52 0 4 -10 10 -22 13 l-23 6 -1500 -1 -1500 0 -25 -7z"></path><path id="p96Qxn4QX" d="M33 1704 c1 -1 178 -119 394 -263 l392 -262 1593 3 1593 3 3 29 c2 17 1 50 -3 75 l-7 46 -97 100 c-53 55 -133 140 -176 188 l-79 89 -1807 -4 c-994 -2 -1807 -3 -1806 -4z"></path><path id="p12katZn6m" d="M4125 578 c61 -62 209 -213 330 -335 l220 -223 1977 0 1976 0 322 328 321 327 -23 7 -23 6 -2605 1 -2605 1 110 -112z"></path></g></g><g id="l7mAqhM1hOgfo8MA4mK33Nb" fill="rgb(255,255,255)" style="transform: none;"><g><path id="pK2TwRZbk" d="M1386 2972 c-2 -4 -4 -62 -2 -128 l2 -119 20 -54 19 -54 43 -38 44 -38 57 -22 56 -22 75 -4 c41 -2 85 -6 98 -9 l23 -5 19 -19 20 -20 0 -28 0 -29 -22 -21 c-13 -11 -35 -25 -50 -31 l-27 -10 -38 6 -38 5 -37 39 -38 40 -92 -7 -93 -6 -11 -14 -12 -15 10 -39 10 -40 40 -45 39 -44 66 -33 65 -32 89 -4 89 -4 48 12 c26 7 70 23 98 35 l51 23 23 23 c12 13 33 47 46 74 l24 50 0 47 0 47 -26 58 -25 58 -27 28 c-15 16 -43 37 -63 47 l-35 19 -83 15 c-46 9 -101 16 -122 16 l-38 0 -24 11 -24 11 -16 28 c-10 15 -17 33 -17 39 l0 11 234 0 233 0 6 88 5 87 -10 13 -10 12 -334 0 -333 0 -5 -8z"></path><path id="p5wtlN03a" d="M11032 2839 l-63 -8 -57 -26 c-84 -39 -105 -63 -133 -157 l-8 -28 15 -15 15 -15 77 0 76 0 36 41 35 40 55 6 56 5 32 -27 33 -28 -3 -20 -3 -20 -28 -21 -28 -21 -87 -5 -87 -5 0 -70 0 -70 89 -5 88 -6 19 -23 c25 -30 24 -37 -6 -66 l-24 -25 -40 0 -40 0 -26 12 -26 12 -15 28 -15 29 -87 -3 -87 -3 2 -33 1 -33 15 -32 c19 -39 60 -79 105 -101 l33 -17 74 -14 75 -15 52 10 c79 15 119 29 160 57 l36 24 21 49 21 49 0 41 0 41 -14 27 c-8 15 -24 36 -35 46 l-22 20 42 42 42 43 -7 65 c-11 107 -35 150 -106 186 -37 18 -156 51 -181 49 -8 -1 -42 -5 -77 -10z"></path><path id="pHr6vwHEg" d="M6190 2830 l-13 -8 -3 -150 -4 -151 11 -6 10 -7 99 -2 99 -1 12 -12 12 -12 0 -331 -1 -332 -11 -11 -11 -11 -64 17 -64 17 -36 0 -35 0 -11 -19 -10 -20 0 -139 0 -139 18 -15 17 -16 175 -62 c96 -34 219 -80 273 -101 l97 -39 24 0 24 0 13 16 13 15 0 32 c0 18 -4 239 -9 492 -5 253 -8 498 -7 545 l3 84 11 13 10 13 87 0 87 0 16 13 17 12 3 146 3 146 -14 16 -13 17 -407 -1 -408 -1 -13 -8z"></path></g></g></svg>